<?xml version="1.0" encoding="UTF-8" standalone="no"?>
<!DOCTYPE svg PUBLIC "-//W3C//DTD SVG 1.1//EN" "http://www.w3.org/Graphics/SVG/1.1/DTD/svg11.dtd">
<svg width="100%" height="100%" viewBox="0 0 2400 2400" version="1.1" xmlns="http://www.w3.org/2000/svg" xmlns:xlink="http://www.w3.org/1999/xlink" xml:space="preserve" style="fill-rule:evenodd;clip-rule:evenodd;stroke-linecap:round;stroke-linejoin:round;stroke-miterlimit:1.5;">
    <rect x="-52.165" y="-79.63" width="2769.88" height="3427.09" style="fill:#0071BA;stroke:#fff;stroke-width:1px;"/>
    <path d="M1201.36,126.101c9.958,151.387 13.258,177.861 11.493,329.478c-4.855,416.981 -27.227,833.5 -30.109,1250.57c-1.294,187.352 1.636,374.074 3.097,561.301" style="fill:none;stroke:#fff;stroke-width:10.42px;"/>
    <path d="M80.163,1178.77c123.385,-2.982 358.975,-2.623 482.394,-2.341c368.548,0.842 734.143,31.155 1103.11,17.423c194.688,-7.246 468.291,-17.463 663.111,-20.261" style="fill:none;stroke:#fff;stroke-width:10.42px;"/>
    <path d="M369.808,2060.8c39.48,-37.55 76.135,-82.205 114.225,-121.449c111.603,-114.988 212.737,-239.634 322.046,-356.735c42.655,-45.696 94.758,-82.494 138.884,-127.083c111.414,-112.585 213.915,-233.041 325.157,-345.82c68.75,-69.7 149.084,-129.683 221.689,-195.419c62.743,-56.806 117.946,-122.653 177.255,-183.005c183.927,-187.162 233.928,-244.972 417.994,-431.707" style="fill:none;stroke:#fff;stroke-width:10.42px;"/>
    <path d="M372.576,333.471c50.095,40.95 167.28,165.722 299.356,287.776c192.965,178.322 365.23,379.848 531.921,580.423c162.334,195.333 352.886,364.032 523.958,551.127c44.822,49.02 100.222,85.668 146.704,132.677c144.514,146.149 -59.048,-57.673 85.943,87.319" style="fill:none;stroke:#fff;stroke-width:10.42px;"/>
    <path d="M752.654,235.217c17.698,41.169 28.6,85.459 47.517,125.756c72.837,155.162 157.34,303.915 226.27,461.387c146.846,335.474 290.282,671.211 448.987,1001.71c33.616,70.006 58.092,145.281 92.68,214.455" style="fill:none;stroke:#fff;stroke-width:10.42px;"/>
    <path d="M340.868,1599.89c91.956,-55.702 192.943,-99.286 289.426,-146.276c40.087,-19.523 75.395,-47.363 116.453,-65.382c313.756,-137.706 635.428,-262.017 940.025,-419.906c10.94,-5.671 429.543,-179.155 434.076,-202.497" style="fill:none;stroke:#fff;stroke-width:10.42px;"/>
    <path d="M1575.49,265.925c-1.179,-3.739 -1.992,-7.614 -3.539,-11.216c-3.198,-7.449 -6.584,14.818 -9.731,22.289c-5.066,12.022 -7.918,24.387 -13.728,36.301c-19.339,39.66 -37.873,79.58 -57.862,118.964c-60.587,119.375 -108.125,245.687 -154.823,371.048c-111.64,299.694 -230.077,597.998 -356.15,892.508c-21.507,50.24 -84.416,283.504 -136.373,322.788" style="fill:none;stroke:#fff;stroke-width:10.42px;"/>
    <path d="M293.037,754.609c164.443,102.122 340.294,202.212 515.696,284.86c90.637,42.708 188.56,71.29 281.321,109.076c117.501,47.863 231.705,106.729 343.893,165.739c121.388,63.848 245.222,120.283 367.508,182.719c40.07,20.459 84.974,33.777 127.826,47.389c7.571,2.405 206.291,86.432 200.087,88.299" style="fill:none;stroke:#fff;stroke-width:10.42px;"/>
    <path d="M1850.31,211.601c-114.015,201.375 -268.696,372.117 -398.944,562.643c-62.995,92.148 -111.043,191.841 -167.666,287.514c-84.401,142.609 -175.736,281.264 -258.89,424.472c-87.409,150.538 -192.655,292.285 -287.514,438.356c-31.789,48.951 -63.595,97.338 -92.537,148.045c-10.889,19.078 -23.734,36.837 -36.159,54.909c-0.451,0.656 -14.627,23.731 -17.123,17.551" style="fill:none;stroke:#fff;stroke-width:10.42px;"/>
    <path d="M281.378,1845.92c129.358,-98.852 255.414,-203.522 387.586,-298.587c183.082,-131.683 375.092,-252.186 562.628,-377.098c106.473,-70.918 206.572,-150.878 312.015,-223.159c141.353,-96.898 289.801,-190.719 423.16,-298.288c46.149,-37.224 92.817,-73.724 136.972,-113.356c8.128,-7.296 79.53,-60.034 58.147,-46.789" style="fill:none;stroke:#fff;stroke-width:10.42px;"/>
    <path d="M265.596,1366.1c-2.043,-5.166 122.276,-26.724 144.193,-32.32c107.837,-27.536 218.341,-39.989 326.769,-64.355c133.057,-29.901 258.292,-42.087 390.24,-66.424c196.153,-36.18 390.28,-85.28 586.544,-122.346c117.021,-22.101 232.58,-49.148 348.473,-76.456c39.393,-9.282 76.395,-14.33 116.153,-18.008c10.169,-0.941 26.153,-11.999 36.458,-15.796c4.002,-1.474 17.829,-4.674 14.17,-4.281" style="fill:none;stroke:#fff;stroke-width:10.42px;"/>
    <path d="M200.799,906.193c112.215,47.915 239.299,71.093 356.578,111.13c86.303,29.462 169.122,66.219 256.521,94.021c215.754,68.632 438.464,112.852 658.419,165.012c141.473,33.548 283.228,75.096 427.74,92.694c50.448,6.143 99.567,18.64 149.8,25.228c14.494,1.901 70.386,10.068 58.89,4.281" style="fill:none;stroke:#fff;stroke-width:10.42px;"/>
    <path d="M392.38,627.968c156.375,119.555 321.736,228.053 480.123,345.377c76.88,56.948 146.789,125.413 224.629,179.923c97.323,68.152 197.082,130.156 288.556,206.036c102.934,85.386 228.327,144.82 334.446,226.698c6.195,4.78 165.879,105.51 144.934,108.347" style="fill:none;stroke:#fff;stroke-width:10.42px;"/>
    <path d="M628.382,357.72c54.476,67.632 107.775,141.351 153.496,215.197c26.045,42.067 44.387,88.439 72.175,129.437c73.422,108.329 142.636,219.219 216.224,327.226c55.797,81.897 119.139,159.032 174.158,241.168c72.355,108.017 140.018,220.988 219.335,324.258c88.92,115.772 165.182,240.781 250.014,359.546c1.739,2.435 8.541,17.423 11.373,17.423" style="fill:none;stroke:#fff;stroke-width:10.42px;"/>
    <path d="M944.235,222.974c15.889,54.904 19.718,108.226 30.694,163.969c21.922,111.339 47.452,228.956 78.667,338c75.448,263.562 183.014,513.425 244.121,781.664c32.326,141.9 60.012,285.177 94.463,426.541c11.701,48.009 24.745,95.782 37.186,143.607c4.09,15.721 8.479,31.366 12.558,47.089c1.026,3.959 8.144,25.406 4.865,21.247" style="fill:none;stroke:#fff;stroke-width:10.42px;"/>
    <path d="M1419.04,211.458c-65.635,208.44 -111.318,425.268 -152.169,639.826c-16.634,87.37 -25.511,176.242 -47.231,262.572c-68.252,271.269 -133.649,542.385 -184.332,817.522c-14.599,79.249 -42.809,166.916 -42.809,247.96" style="fill:none;stroke:#fff;stroke-width:10.42px;"/>
    <path d="M1058.66,162.852c-29.58,208.493 77.453,470.33 105.852,673.254c39.964,285.561 63.888,574.093 94.592,860.999c18.477,172.65 50.78,346.108 61.949,519.225" style="fill:none;stroke:#fff;stroke-width:10.42px;"/>
    <circle cx="1192.34" cy="1191.94" r="465.875" style="fill:#0071BA;"/>
</svg>
