<?xml version="1.0" encoding="UTF-8" standalone="no"?>
<!DOCTYPE svg PUBLIC "-//W3C//DTD SVG 1.1//EN" "http://www.w3.org/Graphics/SVG/1.1/DTD/svg11.dtd">
<svg width="100%" height="100%" viewBox="0 0 1500 900" version="1.1" xmlns="http://www.w3.org/2000/svg" xmlns:xlink="http://www.w3.org/1999/xlink" xml:space="preserve" style="fill-rule:evenodd;clip-rule:evenodd;stroke-linecap:round;stroke-linejoin:round;stroke-miterlimit:1.5;">
    <path d="M874.532,126.551c0.002,-0.587 -13.489,-90.255 5.451,-68.52" style="fill:none;stroke:#fff;stroke-width:14.58px;"/>
    <path d="M1093.55,140.21c14.65,-20.517 26.346,-38.501 37.343,-59.561c1.277,-2.445 1.313,-5.532 0.599,-3.708" style="fill:none;stroke:#fff;stroke-width:14.58px;"/>
    <path d="M1300.33,188.721c28.853,-16.576 71.905,-34.654 68.779,-31.196" style="fill:none;stroke:#fff;stroke-width:14.58px;"/>
    <path d="M1361.29,302.15c45.853,2.733 105.92,6.242 102.725,20.209" style="fill:none;stroke:#fff;stroke-width:14.58px;"/>
    <path d="M1333.69,464.417c24.749,17.761 81.893,21.241 113.042,34.989" style="fill:none;stroke:#fff;stroke-width:14.58px;"/>
    <path d="M1138.43,535.546c8.788,21.881 26.757,49.925 28.182,73.982" style="fill:none;stroke:#fff;stroke-width:14.58px;"/>
    <path d="M729.583,576.853c2.311,20.015 6.001,42.032 2.226,62.498" style="fill:none;stroke:#fff;stroke-width:14.58px;"/>
    <path d="M441.042,557.182c-9.006,34.798 -23.06,52.461 -42.366,82.285" style="fill:none;stroke:#fff;stroke-width:14.58px;"/>
    <path d="M177.001,487.796c-22.586,20.3 -45.252,25.863 -80.009,50.37" style="fill:none;stroke:#fff;stroke-width:14.58px;"/>
    <path d="M133.893,397.978c-41.767,-0.189 -65.45,-3.418 -102.868,-10.057" style="fill:none;stroke:#fff;stroke-width:14.58px;"/>
    <path d="M147.035,256.797c-15.367,-4.717 -73.076,-18.294 -74.387,-27.319" style="fill:none;stroke:#fff;stroke-width:14.58px;"/>
    <path d="M330.639,164.36c-12.65,-14.417 -34.201,-35.301 -37.343,-54.966" style="fill:none;stroke:#fff;stroke-width:14.58px;"/>
    <path d="M591.441,118.786c-2.83,-23.983 -11.115,-52.278 -8.419,-77.035" style="fill:none;stroke:#fff;stroke-width:14.58px;"/>
</svg>
