<?xml version="1.0" encoding="UTF-8" standalone="no"?>
<!DOCTYPE svg PUBLIC "-//W3C//DTD SVG 1.1//EN" "http://www.w3.org/Graphics/SVG/1.1/DTD/svg11.dtd">
<svg width="100%" height="100%" viewBox="0 0 840 900" version="1.1" xmlns="http://www.w3.org/2000/svg" xmlns:xlink="http://www.w3.org/1999/xlink" xml:space="preserve" style="fill-rule:evenodd;clip-rule:evenodd;stroke-linecap:round;stroke-linejoin:round;stroke-miterlimit:1.5;">

<style>

@font-face {
	font-family: 'SooperSerifThinCondensed';
	src: url('../fonts/sooper/sooperserif-thincondensed-webfont.eot');
	src: url('../fonts/sooper/sooperserif-thincondensed-webfont.eot?#iefix') format('embedded-opentype'),
	     url('../fonts/sooper/sooperserif-thincondensed-webfont.woff') format('woff'),
	     url('../fonts/sooper/sooperserif-thincondensed-webfont.ttf') format('truetype');
	font-weight: normal;
	font-style: normal;
}

@font-face {
	font-family: 'SooperSerifThinCondensed2x';
	src: url('../fonts/sooper/sooperserif-thincondensed2x-webfont.eot');
	src: url('../fonts/sooper/sooperserif-thincondensed2x-webfont.eot?#iefix') format('embedded-opentype'),
	     url('../fonts/sooper/sooperserif-thincondensed2x-webfont.woff') format('woff'),
	     url('../fonts/sooper/sooperserif-thincondensed2x-webfont.ttf') format('truetype');
	font-weight: normal;
	font-style: normal;
}

.none {
	display: none !important;
}
</style>

    <g id="Browser-window">
        <path d="M26.336,253.582c0.183,-7.826 -0.985,-97.865 -0.638,-149.784c0.236,-35.26 0.277,-48.214 5.381,-56.955c14.194,-24.309 31.155,-19.116 115.419,-20.565c55.8,-0.959 111.707,-1.386 167.471,-0.999c39.025,0.271 78.009,1.644 116.996,1.948c33.831,0.263 285.015,-4.966 318.792,-1.31c12.686,1.374 33.692,-0.196 45.157,5.707c17.31,8.911 18.162,47.421 20.45,73.166c2.121,23.868 -1.77,126.434 -2.328,143.855c-0.601,18.748 -2.404,501.403 -2.79,520.189c-0.581,28.235 7.635,80.131 -2.409,92.051c-15.36,18.229 -67.854,10.669 -94.064,11.953c-48.815,2.39 -315.476,1.881 -364.178,4.279c-27.257,1.342 -54.781,-1.572 -82.009,-0.248c-22.454,1.091 -167.323,0.42 -198.353,-0.656c-5.035,-0.175 -25.931,-0.172 -33.98,-10.576c-5.598,-7.235 -7.296,-13.336 -8.244,-38.383c-1.376,-36.339 -0.549,-451.922 -1.387,-489.245c-0.54,-24.096 0.15,-60.301 0.714,-84.427Z" style="fill:#fff;"/>
        <g id="circles">
            <path d="M55.513,42.895l0.121,0.002l0.122,0.003l0.122,0.005l0.123,0.006l0.123,0.007l0.124,0.009l0.125,0.011l0.125,0.012l0.126,0.014l0.127,0.015l0.127,0.017l0.127,0.019l0.129,0.02l0.129,0.021l0.129,0.024l0.13,0.025l0.131,0.027l0.132,0.028l0.132,0.03l0.132,0.032l0.134,0.033l0.134,0.036l0.134,0.036l0.135,0.039l0.136,0.041l0.136,0.042l0.137,0.044l0.138,0.046l0.138,0.048l0.139,0.049l0.14,0.052l0.14,0.053l0.141,0.055l0.141,0.057l0.142,0.059l0.143,0.061l0.144,0.063l0.143,0.065l0.145,0.066l0.145,0.069l0.146,0.071l0.147,0.072l0.147,0.075l0.148,0.076l0.148,0.079l0.149,0.081l0.15,0.083l0.15,0.084l0.151,0.087l0.152,0.089l0.152,0.092l0.153,0.093l0.154,0.095l0.154,0.098l0.155,0.1l0.156,0.101l0.156,0.105l0.157,0.106l0.113,0.078l0.112,0.078l0.11,0.079l0.109,0.079l0.107,0.079l0.106,0.08l0.104,0.08l0.102,0.08l0.102,0.08l0.099,0.081l0.098,0.08l0.097,0.082l0.095,0.081l0.094,0.082l0.092,0.082l0.091,0.082l0.089,0.082l0.088,0.083l0.087,0.082l0.085,0.083l0.083,0.084l0.082,0.083l0.081,0.084l0.079,0.084l0.078,0.084l0.077,0.084l0.075,0.085l0.074,0.084l0.072,0.085l0.071,0.085l0.069,0.085l0.068,0.086l0.067,0.085l0.066,0.086l0.064,0.086l0.062,0.086l0.062,0.086l0.06,0.087l0.058,0.086l0.058,0.087l0.056,0.087l0.054,0.087l0.054,0.087l0.052,0.087l0.051,0.087l0.049,0.087l0.048,0.088l0.047,0.088l0.046,0.087l0.044,0.088l0.043,0.088l0.042,0.088l0.041,0.088l0.039,0.088l0.038,0.089l0.037,0.088l0.035,0.088l0.035,0.089l0.033,0.088l0.031,0.089l0.031,0.089l0.03,0.088l0.028,0.089l0.027,0.089l0.026,0.089l0.024,0.089l0.024,0.089l0.022,0.088l0.021,0.089l0.02,0.089l0.019,0.089l0.018,0.089l0.016,0.089l0.016,0.089l0.014,0.089l0.013,0.089l0.012,0.089l0.011,0.089l0.009,0.089l0.009,0.089l0.007,0.089l0.007,0.089l0.005,0.089l0.004,0.088l0.003,0.089l0.002,0.089l0.001,0.089l0,0.088l-0.001,0.089l-0.002,0.088l-0.003,0.088l-0.005,0.089l-0.005,0.088l-0.006,0.088l-0.008,0.088l-0.008,0.088l-0.01,0.088l-0.01,0.088l-0.012,0.088l-0.012,0.087l-0.014,0.088l-0.014,0.087l-0.016,0.087l-0.016,0.087l-0.018,0.087l-0.018,0.087l-0.019,0.087l-0.021,0.087l-0.021,0.086l-0.022,0.086l-0.023,0.087l-0.024,0.086l-0.025,0.085l-0.026,0.086l-0.027,0.086l-0.028,0.085l-0.029,0.085l-0.029,0.085l-0.031,0.085l-0.031,0.084l-0.032,0.085l-0.034,0.084l-0.034,0.084l-0.034,0.084l-0.036,0.084l-0.037,0.083l-0.037,0.083l-0.039,0.083l-0.039,0.083l-0.04,0.082l-0.041,0.083l-0.041,0.082l-0.043,0.081l-0.043,0.082l-0.044,0.081l-0.045,0.081l-0.046,0.081l-0.046,0.081l-0.048,0.08l-0.048,0.08l-0.049,0.08l-0.049,0.079l-0.051,0.079l-0.051,0.079l-0.052,0.079l-0.053,0.078l-0.053,0.078l-0.054,0.078l-0.055,0.077l-0.056,0.077l-0.056,0.077l-0.057,0.076l-0.058,0.076l-0.058,0.076l-0.06,0.076l-0.059,0.075l-0.122,0.149l-0.125,0.148l-0.127,0.146l-0.13,0.145l-0.132,0.143l-0.135,0.142l-0.138,0.141l-0.14,0.138l-0.142,0.138l-0.145,0.135l-0.147,0.134l-0.149,0.132l-0.152,0.13l-0.153,0.129l-0.156,0.126l-0.158,0.125l-0.16,0.123l-0.162,0.121l-0.164,0.119l-0.166,0.118l-0.168,0.115l-0.17,0.113l-0.171,0.111l-0.173,0.108l-0.175,0.107l-0.177,0.105l-0.178,0.102l-0.18,0.1l-0.181,0.098l-0.183,0.095l-0.185,0.093l-0.185,0.091l-0.187,0.088l-0.189,0.086l-0.189,0.084l-0.191,0.08l-0.192,0.079l-0.193,0.075l-0.195,0.074l-0.195,0.07l-0.196,0.068l-0.197,0.065l-0.199,0.062l-0.199,0.06l-0.2,0.057l-0.2,0.054l-0.202,0.051l-0.101,0.024l-0.101,0.024l-0.101,0.023l-0.102,0.022l-0.102,0.022l-0.101,0.021l-0.169,0.032l-0.168,0.029l-0.168,0.026l-0.168,0.023l-0.167,0.021l-0.167,0.017l-0.166,0.014l-0.165,0.012l-0.165,0.008l-0.165,0.006l-0.163,0.003l-0.164,0l-0.162,-0.003l-0.162,-0.006l-0.162,-0.008l-0.161,-0.011l-0.16,-0.013l-0.159,-0.016l-0.159,-0.019l-0.158,-0.021l-0.157,-0.024l-0.156,-0.027l-0.156,-0.029l-0.155,-0.031l-0.154,-0.034l-0.153,-0.037l-0.152,-0.038l-0.152,-0.041l-0.15,-0.044l-0.15,-0.046l-0.148,-0.048l-0.148,-0.05l-0.147,-0.053l-0.146,-0.055l-0.145,-0.057l-0.143,-0.059l-0.143,-0.061l-0.142,-0.064l-0.14,-0.065l-0.14,-0.068l-0.138,-0.07l-0.137,-0.071l-0.137,-0.074l-0.135,-0.076l-0.133,-0.077l-0.133,-0.08l-0.131,-0.081l-0.13,-0.083l-0.129,-0.085l-0.128,-0.087l-0.126,-0.089l-0.125,-0.09l-0.124,-0.092l-0.122,-0.094l-0.121,-0.096l-0.12,-0.097l-0.118,-0.099l-0.117,-0.1l-0.115,-0.102l-0.114,-0.103l-0.112,-0.105l-0.111,-0.107l-0.11,-0.108l-0.108,-0.109l-0.106,-0.111l-0.105,-0.112l-0.103,-0.114l-0.102,-0.114l-0.1,-0.117l-0.098,-0.117l-0.097,-0.119l-0.095,-0.12l-0.093,-0.121l-0.092,-0.122l-0.09,-0.124l-0.088,-0.124l-0.086,-0.126l-0.085,-0.127l-0.083,-0.127l-0.081,-0.129l-0.079,-0.13l-0.078,-0.131l-0.075,-0.132l-0.074,-0.132l-0.072,-0.134l-0.07,-0.134l-0.068,-0.135l-0.065,-0.136l-0.064,-0.137l-0.062,-0.138l-0.06,-0.138l-0.058,-0.139l-0.056,-0.14l-0.054,-0.14l-0.052,-0.141l-0.05,-0.142l-0.047,-0.142l-0.046,-0.143l-0.043,-0.143l-0.041,-0.144l-0.039,-0.144l-0.036,-0.145l-0.035,-0.145l-0.032,-0.145l-0.03,-0.146l-0.028,-0.146l-0.025,-0.147l-0.023,-0.146l-0.021,-0.147l-0.019,-0.148l-0.016,-0.147l-0.013,-0.148l-0.011,-0.148l-0.009,-0.147l-0.007,-0.149l-0.004,-0.148l-0.001,-0.148l0.001,-0.148l0.004,-0.148l0.006,-0.148l0.008,-0.149l0.012,-0.148l0.013,-0.148l0.017,-0.147l0.019,-0.148l0.021,-0.148l0.025,-0.147l0.027,-0.147l0.013,-0.071l0.012,-0.073l0.011,-0.073l0.011,-0.075l0.019,-0.153l0.018,-0.158l0.017,-0.162l0.017,-0.167l0.017,-0.171l0.02,-0.175l0.021,-0.18l0.012,-0.092l0.013,-0.093l0.013,-0.093l0.015,-0.095l0.016,-0.096l0.018,-0.097l0.018,-0.098l0.021,-0.099l0.021,-0.1l0.024,-0.101l0.025,-0.102l0.028,-0.103l0.029,-0.104l0.031,-0.105l0.034,-0.106l0.036,-0.107l0.038,-0.108l0.041,-0.109l0.043,-0.11l0.047,-0.111l0.049,-0.112l0.052,-0.112l0.054,-0.114l0.059,-0.115l0.061,-0.115l0.064,-0.117l0.068,-0.117l0.072,-0.119l0.075,-0.119l0.079,-0.12l0.083,-0.121l0.087,-0.122l0.09,-0.123l0.095,-0.124l0.099,-0.125l0.104,-0.125l0.108,-0.127l0.112,-0.127l0.117,-0.128l0.122,-0.129l0.127,-0.129l0.131,-0.131l0.137,-0.131l0.142,-0.133l0.147,-0.133l0.152,-0.133l0.081,-0.069l0.081,-0.069l0.081,-0.068l0.082,-0.067l0.083,-0.067l0.083,-0.066l0.084,-0.065l0.084,-0.065l0.085,-0.064l0.085,-0.064l0.086,-0.063l0.086,-0.062l0.087,-0.061l0.088,-0.061l0.088,-0.06l0.089,-0.059l0.089,-0.059l0.09,-0.057l0.091,-0.057l0.091,-0.056l0.091,-0.056l0.092,-0.054l0.093,-0.054l0.093,-0.053l0.094,-0.052l0.095,-0.051l0.095,-0.05l0.095,-0.05l0.096,-0.048l0.097,-0.048l0.098,-0.046l0.097,-0.046l0.099,-0.044l0.099,-0.044l0.1,-0.043l0.1,-0.042l0.101,-0.04l0.101,-0.04l0.102,-0.038l0.102,-0.038l0.103,-0.036l0.104,-0.036l0.104,-0.034l0.105,-0.033l0.106,-0.032l0.106,-0.031l0.106,-0.03l0.108,-0.029l0.108,-0.027l0.108,-0.027l0.109,-0.025l0.109,-0.024l0.111,-0.022l0.11,-0.022l0.112,-0.02l0.112,-0.019l0.112,-0.017l0.114,-0.017l0.113,-0.015l0.115,-0.014l0.115,-0.012l0.115,-0.011l0.116,-0.01l0.117,-0.008l0.117,-0.007l0.118,-0.006l0.119,-0.004l0.119,-0.002l0.12,-0.002l0.12,0Zm-0.186,3.2l-0.08,0.001l-0.08,0.003l-0.08,0.004l-0.078,0.005l-0.079,0.005l-0.077,0.007l-0.078,0.007l-0.076,0.008l-0.076,0.01l-0.076,0.01l-0.075,0.01l-0.075,0.012l-0.075,0.013l-0.074,0.013l-0.073,0.014l-0.074,0.015l-0.073,0.016l-0.072,0.017l-0.073,0.018l-0.071,0.018l-0.072,0.019l-0.072,0.02l-0.071,0.021l-0.07,0.021l-0.071,0.023l-0.07,0.023l-0.07,0.024l-0.07,0.024l-0.07,0.026l-0.069,0.026l-0.069,0.027l-0.069,0.028l-0.069,0.029l-0.069,0.029l-0.068,0.03l-0.068,0.031l-0.069,0.032l-0.067,0.033l-0.068,0.033l-0.068,0.034l-0.067,0.035l-0.067,0.035l-0.067,0.036l-0.067,0.037l-0.067,0.038l-0.067,0.039l-0.066,0.039l-0.066,0.04l-0.066,0.041l-0.066,0.042l-0.066,0.042l-0.066,0.043l-0.065,0.043l-0.065,0.045l-0.065,0.045l-0.065,0.046l-0.065,0.046l-0.065,0.047l-0.064,0.048l-0.064,0.049l-0.064,0.049l-0.064,0.05l-0.063,0.05l-0.064,0.052l-0.063,0.051l-0.063,0.053l-0.063,0.053l-0.058,0.05l-0.121,0.107l-0.112,0.101l-0.106,0.099l-0.101,0.097l-0.096,0.094l-0.09,0.093l-0.086,0.091l-0.081,0.089l-0.077,0.086l-0.072,0.085l-0.068,0.082l-0.064,0.081l-0.06,0.078l-0.056,0.076l-0.053,0.075l-0.05,0.072l-0.046,0.071l-0.043,0.068l-0.041,0.068l-0.038,0.065l-0.035,0.064l-0.033,0.063l-0.031,0.061l-0.029,0.06l-0.027,0.059l-0.026,0.058l-0.024,0.057l-0.022,0.056l-0.021,0.056l-0.02,0.056l-0.018,0.055l-0.018,0.055l-0.016,0.055l-0.016,0.056l-0.014,0.055l-0.014,0.056l-0.014,0.057l-0.012,0.057l-0.012,0.059l-0.011,0.059l-0.011,0.06l-0.01,0.062l-0.01,0.062l-0.01,0.065l-0.009,0.066l-0.008,0.063l-0.018,0.147l-0.016,0.149l-0.016,0.159l-0.017,0.169l-0.019,0.181l-0.022,0.194l-0.025,0.199l-0.017,0.117l-0.017,0.114l-0.02,0.118l-0.018,0.094l-0.021,0.118l-0.015,0.091l-0.014,0.091l-0.011,0.092l-0.011,0.092l-0.008,0.092l-0.007,0.093l-0.006,0.093l-0.003,0.094l-0.003,0.094l0,0.094l0.001,0.094l0.002,0.095l0.004,0.095l0.006,0.096l0.007,0.096l0.009,0.096l0.01,0.096l0.013,0.097l0.013,0.097l0.015,0.097l0.017,0.097l0.019,0.097l0.02,0.098l0.021,0.098l0.024,0.097l0.025,0.098l0.026,0.098l0.028,0.098l0.029,0.098l0.032,0.098l0.032,0.097l0.035,0.098l0.035,0.098l0.038,0.097l0.039,0.097l0.04,0.097l0.042,0.097l0.043,0.096l0.045,0.096l0.047,0.096l0.048,0.096l0.049,0.095l0.051,0.094l0.052,0.094l0.054,0.094l0.055,0.093l0.056,0.092l0.058,0.092l0.059,0.092l0.061,0.09l0.062,0.09l0.063,0.089l0.064,0.089l0.066,0.087l0.067,0.087l0.068,0.086l0.07,0.086l0.07,0.084l0.072,0.083l0.073,0.083l0.074,0.081l0.075,0.081l0.077,0.079l0.077,0.078l0.078,0.078l0.08,0.076l0.08,0.075l0.081,0.074l0.083,0.073l0.083,0.071l0.084,0.07l0.085,0.069l0.086,0.068l0.087,0.067l0.087,0.065l0.089,0.064l0.089,0.062l0.09,0.062l0.09,0.059l0.092,0.059l0.092,0.057l0.092,0.055l0.094,0.055l0.094,0.052l0.094,0.051l0.096,0.05l0.095,0.048l0.097,0.047l0.096,0.045l0.098,0.044l0.098,0.042l0.098,0.041l0.099,0.038l0.099,0.038l0.1,0.036l0.1,0.034l0.101,0.032l0.101,0.031l0.102,0.03l0.102,0.027l0.102,0.026l0.103,0.025l0.103,0.023l0.103,0.021l0.104,0.019l0.105,0.018l0.105,0.016l0.105,0.014l0.105,0.012l0.106,0.011l0.107,0.009l0.107,0.007l0.107,0.006l0.108,0.003l0.108,0.002l0.109,0l0.109,-0.002l0.11,-0.004l0.11,-0.005l0.111,-0.008l0.111,-0.01l0.112,-0.011l0.113,-0.014l0.113,-0.015l0.114,-0.018l0.114,-0.02l0.123,-0.023l0.071,-0.015l0.079,-0.017l0.078,-0.017l0.079,-0.018l0.079,-0.018l0.073,-0.018l0.162,-0.041l0.157,-0.042l0.157,-0.045l0.156,-0.046l0.155,-0.049l0.155,-0.051l0.155,-0.054l0.154,-0.055l0.153,-0.058l0.153,-0.06l0.152,-0.062l0.151,-0.064l0.15,-0.066l0.15,-0.068l0.148,-0.07l0.147,-0.072l0.146,-0.074l0.146,-0.076l0.143,-0.077l0.143,-0.08l0.141,-0.081l0.14,-0.083l0.139,-0.084l0.137,-0.086l0.136,-0.088l0.134,-0.089l0.132,-0.091l0.131,-0.093l0.129,-0.093l0.127,-0.095l0.126,-0.097l0.123,-0.097l0.122,-0.099l0.12,-0.1l0.118,-0.102l0.115,-0.102l0.114,-0.103l0.111,-0.105l0.11,-0.105l0.107,-0.106l0.104,-0.107l0.103,-0.108l0.1,-0.108l0.098,-0.109l0.095,-0.11l0.093,-0.11l0.094,-0.116l0.041,-0.05l0.043,-0.056l0.043,-0.056l0.043,-0.056l0.041,-0.055l0.041,-0.056l0.041,-0.056l0.04,-0.056l0.039,-0.057l0.038,-0.056l0.038,-0.056l0.037,-0.056l0.037,-0.056l0.035,-0.057l0.036,-0.056l0.034,-0.056l0.034,-0.056l0.033,-0.056l0.032,-0.057l0.032,-0.056l0.031,-0.056l0.031,-0.056l0.03,-0.056l0.029,-0.056l0.028,-0.056l0.028,-0.056l0.027,-0.055l0.026,-0.056l0.026,-0.056l0.025,-0.055l0.024,-0.056l0.024,-0.055l0.023,-0.055l0.022,-0.055l0.022,-0.055l0.021,-0.055l0.02,-0.055l0.02,-0.054l0.018,-0.054l0.019,-0.055l0.017,-0.054l0.017,-0.054l0.017,-0.054l0.015,-0.053l0.015,-0.054l0.015,-0.053l0.013,-0.054l0.013,-0.053l0.013,-0.052l0.012,-0.053l0.011,-0.053l0.01,-0.052l0.01,-0.052l0.009,-0.053l0.009,-0.051l0.008,-0.052l0.007,-0.052l0.007,-0.051l0.006,-0.052l0.006,-0.051l0.005,-0.051l0.004,-0.051l0.004,-0.051l0.003,-0.05l0.002,-0.051l0.002,-0.05l0.001,-0.051l0.001,-0.05l0,-0.05l-0.001,-0.05l-0.001,-0.05l-0.002,-0.05l-0.002,-0.05l-0.003,-0.049l-0.003,-0.05l-0.005,-0.05l-0.004,-0.049l-0.006,-0.05l-0.006,-0.05l-0.007,-0.049l-0.007,-0.05l-0.008,-0.05l-0.008,-0.049l-0.01,-0.05l-0.009,-0.05l-0.011,-0.05l-0.011,-0.05l-0.012,-0.05l-0.013,-0.05l-0.013,-0.05l-0.014,-0.051l-0.015,-0.05l-0.015,-0.051l-0.016,-0.051l-0.017,-0.051l-0.018,-0.051l-0.018,-0.051l-0.02,-0.052l-0.02,-0.052l-0.021,-0.051l-0.021,-0.053l-0.023,-0.052l-0.023,-0.053l-0.025,-0.052l-0.025,-0.053l-0.026,-0.054l-0.027,-0.053l-0.028,-0.054l-0.029,-0.054l-0.03,-0.054l-0.031,-0.055l-0.032,-0.055l-0.032,-0.055l-0.034,-0.056l-0.036,-0.055l-0.036,-0.056l-0.037,-0.056l-0.038,-0.057l-0.04,-0.057l-0.04,-0.057l-0.042,-0.057l-0.043,-0.058l-0.044,-0.058l-0.046,-0.058l-0.046,-0.058l-0.048,-0.059l-0.049,-0.059l-0.051,-0.059l-0.051,-0.059l-0.053,-0.06l-0.055,-0.06l-0.055,-0.06l-0.057,-0.06l-0.059,-0.061l-0.059,-0.061l-0.062,-0.061l-0.062,-0.061l-0.064,-0.061l-0.066,-0.062l-0.067,-0.061l-0.068,-0.062l-0.07,-0.062l-0.071,-0.062l-0.073,-0.063l-0.075,-0.062l-0.076,-0.063l-0.077,-0.062l-0.079,-0.063l-0.081,-0.063l-0.082,-0.063l-0.084,-0.063l-0.085,-0.063l-0.087,-0.063l-0.089,-0.064l-0.09,-0.063l-0.092,-0.063l-0.136,-0.093l-0.135,-0.09l-0.135,-0.088l-0.133,-0.086l-0.133,-0.084l-0.131,-0.081l-0.13,-0.08l-0.13,-0.077l-0.128,-0.075l-0.127,-0.074l-0.127,-0.071l-0.125,-0.069l-0.124,-0.067l-0.123,-0.066l-0.123,-0.063l-0.121,-0.062l-0.12,-0.059l-0.119,-0.058l-0.118,-0.056l-0.117,-0.053l-0.116,-0.053l-0.115,-0.05l-0.114,-0.049l-0.113,-0.046l-0.111,-0.045l-0.111,-0.044l-0.11,-0.042l-0.109,-0.04l-0.108,-0.038l-0.107,-0.037l-0.105,-0.035l-0.105,-0.034l-0.104,-0.032l-0.103,-0.031l-0.102,-0.029l-0.1,-0.028l-0.1,-0.026l-0.099,-0.025l-0.098,-0.023l-0.097,-0.023l-0.096,-0.02l-0.096,-0.02l-0.094,-0.018l-0.093,-0.017l-0.093,-0.015l-0.092,-0.015l-0.09,-0.013l-0.09,-0.012l-0.09,-0.011l-0.088,-0.009l-0.088,-0.009l-0.086,-0.007l-0.086,-0.006l-0.086,-0.006l-0.084,-0.004l-0.084,-0.003l-0.083,-0.002l-0.083,-0.001l-0.082,0l-0.081,0.001Z" style="fill:#0071BA;"/>
            <path d="M96.556,42.719l0.137,0.003l0.138,0.004l0.138,0.006l0.14,0.009l0.14,0.01l0.141,0.012l0.142,0.014l0.143,0.016l0.143,0.018l0.144,0.02l0.145,0.023l0.145,0.025l0.146,0.027l0.147,0.029l0.147,0.032l0.148,0.034l0.148,0.036l0.149,0.04l0.15,0.041l0.15,0.045l0.15,0.046l0.152,0.05l0.151,0.053l0.152,0.055l0.153,0.058l0.153,0.061l0.153,0.064l0.154,0.066l0.154,0.07l0.154,0.073l0.155,0.076l0.155,0.079l0.156,0.083l0.155,0.086l0.157,0.089l0.156,0.092l0.156,0.096l0.157,0.099l0.157,0.103l0.157,0.106l0.158,0.11l0.157,0.113l0.158,0.118l0.158,0.121l0.158,0.124l0.158,0.129l0.158,0.132l0.158,0.136l0.159,0.141l0.158,0.144l0.158,0.148l0.158,0.153l0.159,0.156l0.079,0.08l0.079,0.081l0.079,0.082l0.079,0.083l0.079,0.084l0.079,0.086l0.079,0.086l0.079,0.087l0.079,0.089l0.079,0.089l0.09,0.104l0.089,0.104l0.088,0.103l0.087,0.104l0.085,0.104l0.084,0.103l0.083,0.104l0.081,0.103l0.081,0.103l0.079,0.103l0.078,0.104l0.077,0.103l0.075,0.103l0.074,0.102l0.073,0.103l0.072,0.103l0.071,0.103l0.069,0.102l0.069,0.103l0.067,0.102l0.066,0.102l0.064,0.102l0.064,0.103l0.062,0.101l0.061,0.102l0.06,0.102l0.059,0.102l0.058,0.101l0.057,0.101l0.055,0.102l0.054,0.101l0.053,0.101l0.052,0.101l0.051,0.1l0.05,0.101l0.048,0.1l0.047,0.101l0.047,0.1l0.045,0.1l0.044,0.099l0.043,0.1l0.041,0.1l0.041,0.099l0.039,0.099l0.039,0.099l0.037,0.099l0.036,0.099l0.035,0.098l0.034,0.099l0.033,0.098l0.032,0.098l0.031,0.097l0.03,0.098l0.028,0.097l0.028,0.098l0.026,0.096l0.025,0.097l0.025,0.097l0.023,0.096l0.022,0.096l0.021,0.096l0.02,0.096l0.019,0.096l0.018,0.095l0.017,0.095l0.016,0.095l0.015,0.095l0.014,0.094l0.012,0.094l0.012,0.094l0.011,0.094l0.01,0.093l0.008,0.093l0.008,0.093l0.007,0.093l0.005,0.092l0.005,0.093l0.004,0.092l0.002,0.091l0.002,0.092l0.001,0.091l-0.001,0.091l-0.001,0.09l-0.002,0.091l-0.004,0.09l-0.004,0.089l-0.005,0.09l-0.006,0.089l-0.007,0.089l-0.009,0.089l-0.009,0.088l-0.01,0.088l-0.011,0.088l-0.012,0.087l-0.013,0.087l-0.013,0.087l-0.015,0.087l-0.016,0.086l-0.016,0.086l-0.018,0.085l-0.018,0.085l-0.02,0.085l-0.02,0.085l-0.021,0.084l-0.023,0.084l-0.023,0.084l-0.024,0.083l-0.025,0.083l-0.025,0.082l-0.027,0.082l-0.028,0.082l-0.028,0.082l-0.029,0.081l-0.031,0.081l-0.031,0.08l-0.032,0.08l-0.033,0.08l-0.033,0.079l-0.035,0.079l-0.036,0.079l-0.036,0.078l-0.037,0.078l-0.038,0.077l-0.039,0.077l-0.04,0.077l-0.04,0.076l-0.042,0.076l-0.042,0.075l-0.043,0.075l-0.044,0.075l-0.045,0.074l-0.046,0.074l-0.046,0.073l-0.047,0.073l-0.048,0.073l-0.049,0.072l-0.05,0.072l-0.05,0.071l-0.052,0.071l-0.052,0.071l-0.053,0.07l-0.053,0.069l-0.055,0.07l-0.055,0.068l-0.056,0.069l-0.057,0.067l-0.058,0.068l-0.058,0.067l-0.059,0.066l-0.06,0.066l-0.061,0.066l-0.061,0.065l-0.062,0.064l-0.063,0.065l-0.064,0.063l-0.064,0.063l-0.066,0.063l-0.066,0.062l-0.066,0.062l-0.068,0.061l-0.068,0.061l-0.069,0.061l-0.069,0.059l-0.071,0.06l-0.071,0.058l-0.071,0.059l-0.073,0.058l-0.073,0.057l-0.074,0.057l-0.074,0.056l-0.076,0.056l-0.076,0.055l-0.076,0.055l-0.078,0.054l-0.078,0.053l-0.079,0.053l-0.079,0.053l-0.08,0.052l-0.081,0.052l-0.081,0.051l-0.082,0.05l-0.083,0.05l-0.084,0.049l-0.084,0.049l-0.084,0.048l-0.086,0.048l-0.086,0.047l-0.086,0.046l-0.088,0.046l-0.088,0.046l-0.088,0.045l-0.09,0.044l-0.089,0.044l-0.091,0.043l-0.091,0.042l-0.092,0.042l-0.092,0.041l-0.093,0.041l-0.093,0.04l-0.095,0.04l-0.094,0.039l-0.096,0.038l-0.096,0.038l-0.096,0.037l-0.097,0.037l-0.098,0.035l-0.098,0.036l-0.099,0.034l-0.1,0.034l-0.1,0.034l-0.1,0.033l-0.101,0.032l-0.102,0.031l-0.102,0.031l-0.103,0.031l-0.104,0.029l-0.104,0.029l-0.104,0.028l-0.105,0.028l-0.106,0.027l-0.106,0.026l-0.107,0.026l-0.107,0.025l-0.107,0.025l-0.109,0.023l-0.108,0.023l-0.11,0.023l-0.109,0.021l-0.111,0.021l-0.111,0.021l-0.111,0.019l-0.112,0.019l-0.112,0.019l-0.113,0.017l-0.113,0.017l-0.114,0.016l-0.114,0.016l-0.115,0.015l-0.115,0.014l-0.116,0.013l-0.116,0.013l-0.117,0.012l-0.117,0.011l-0.117,0.011l-0.118,0.009l-0.119,0.009l-0.119,0.009l-0.119,0.007l-0.12,0.007l-0.12,0.006l-0.121,0.006l-0.121,0.004l-0.122,0.004l-0.122,0.004l-0.122,0.002l-0.123,0.002l-0.155,0.002l-0.159,0.003l-0.327,0.009l-0.691,0.02l-0.363,0.01l-0.185,0.004l-0.187,0.003l-0.19,0.002l-0.192,0.001l-0.194,-0.001l-0.196,-0.002l-0.198,-0.004l-0.2,-0.006l-0.201,-0.008l-0.203,-0.01l-0.205,-0.013l-0.206,-0.015l-0.207,-0.018l-0.104,-0.01l-0.105,-0.011l-0.104,-0.012l-0.105,-0.013l-0.105,-0.013l-0.106,-0.014l-0.105,-0.016l-0.106,-0.016l-0.106,-0.017l-0.106,-0.018l-0.107,-0.019l-0.106,-0.02l-0.107,-0.021l-0.106,-0.022l-0.107,-0.023l-0.107,-0.024l-0.107,-0.025l-0.107,-0.027l-0.108,-0.028l-0.107,-0.028l-0.107,-0.03l-0.108,-0.032l-0.107,-0.032l-0.107,-0.034l-0.108,-0.035l-0.107,-0.037l-0.107,-0.037l-0.108,-0.039l-0.107,-0.041l-0.107,-0.042l-0.107,-0.043l-0.107,-0.045l-0.107,-0.046l-0.106,-0.048l-0.107,-0.05l-0.106,-0.05l-0.106,-0.053l-0.106,-0.054l-0.106,-0.056l-0.106,-0.057l-0.105,-0.059l-0.105,-0.061l-0.105,-0.062l-0.105,-0.064l-0.104,-0.066l-0.105,-0.067l-0.103,-0.07l-0.104,-0.071l-0.103,-0.073l-0.103,-0.075l-0.103,-0.077l-0.102,-0.079l-0.102,-0.08l-0.101,-0.083l-0.101,-0.085l-0.101,-0.086l-0.1,-0.089l-0.1,-0.091l-0.099,-0.093l-0.099,-0.094l-0.098,-0.097l-0.098,-0.1l-0.098,-0.101l-0.097,-0.103l-0.096,-0.106l-0.096,-0.108l-0.095,-0.11l-0.095,-0.113l-0.094,-0.114l-0.094,-0.117l-0.093,-0.12l-0.092,-0.122l-0.092,-0.124l-0.091,-0.126l-0.09,-0.129l-0.09,-0.132l-0.089,-0.134l-0.088,-0.136l-0.088,-0.139l-0.087,-0.142l-0.086,-0.144l-0.086,-0.147l-0.024,-0.042l-0.023,-0.043l-0.023,-0.044l-0.023,-0.045l-0.043,-0.091l-0.042,-0.093l-0.039,-0.096l-0.038,-0.099l-0.035,-0.101l-0.034,-0.103l-0.031,-0.105l-0.03,-0.108l-0.027,-0.11l-0.026,-0.112l-0.024,-0.114l-0.022,-0.116l-0.02,-0.118l-0.018,-0.12l-0.016,-0.122l-0.015,-0.124l-0.013,-0.125l-0.011,-0.128l-0.009,-0.129l-0.007,-0.13l-0.006,-0.132l-0.004,-0.134l-0.002,-0.135l0,-0.136l0.001,-0.138l0.003,-0.139l0.005,-0.14l0.006,-0.142l0.008,-0.143l0.01,-0.144l0.011,-0.145l0.013,-0.145l0.015,-0.147l0.016,-0.148l0.018,-0.149l0.019,-0.149l0.021,-0.15l0.022,-0.151l0.024,-0.152l0.025,-0.152l0.027,-0.153l0.028,-0.153l0.03,-0.153l0.031,-0.154l0.033,-0.155l0.034,-0.154l0.035,-0.155l0.037,-0.155l0.038,-0.155l0.04,-0.156l0.041,-0.155l0.042,-0.155l0.044,-0.155l0.045,-0.156l0.046,-0.155l0.048,-0.154l0.049,-0.155l0.05,-0.154l0.051,-0.154l0.052,-0.153l0.054,-0.153l0.055,-0.152l0.056,-0.152l0.058,-0.151l0.058,-0.15l0.06,-0.15l0.061,-0.149l0.061,-0.148l0.063,-0.147l0.064,-0.147l0.066,-0.145l0.066,-0.144l0.067,-0.143l0.068,-0.142l0.07,-0.141l0.07,-0.14l0.072,-0.138l0.072,-0.137l0.073,-0.135l0.074,-0.134l0.076,-0.133l0.076,-0.131l0.077,-0.13l0.078,-0.127l0.079,-0.127l0.079,-0.124l0.081,-0.122l0.081,-0.121l0.083,-0.119l0.083,-0.117l0.084,-0.115l0.084,-0.112l0.086,-0.111l0.086,-0.108l0.087,-0.107l0.088,-0.104l0.088,-0.102l0.089,-0.099l0.09,-0.097l0.091,-0.094l0.091,-0.092l0.092,-0.09l0.092,-0.086l0.093,-0.084l0.094,-0.082l0.095,-0.078l0.095,-0.076l0.095,-0.073l0.096,-0.07l0.097,-0.067l0.097,-0.064l0.098,-0.061l0.098,-0.057l0.049,-0.028l0.049,-0.027l0.05,-0.026l0.05,-0.025l0.049,-0.025l0.05,-0.023l0.05,-0.023l0.05,-0.022l0.05,-0.021l0.051,-0.02l0.05,-0.02l0.051,-0.018l0.05,-0.018l0.051,-0.017l0.051,-0.015l0.051,-0.015l0.051,-0.014l0.051,-0.014l0.051,-0.012l0.051,-0.011l0.052,-0.011l0.051,-0.009l0.052,-0.009l0.051,-0.007l0.052,-0.007l0.052,-0.006l0.037,-0.004l0.039,-0.006l0.042,-0.008l0.043,-0.008l0.045,-0.011l0.047,-0.011l0.1,-0.027l0.108,-0.032l0.115,-0.035l0.122,-0.04l0.13,-0.044l0.279,-0.096l0.307,-0.107l0.163,-0.056l0.169,-0.057l0.176,-0.059l0.182,-0.059l0.187,-0.059l0.194,-0.059l0.199,-0.059l0.204,-0.057l0.211,-0.057l0.107,-0.028l0.108,-0.027l0.109,-0.026l0.111,-0.027l0.112,-0.025l0.114,-0.025l0.114,-0.024l0.116,-0.024l0.117,-0.022l0.118,-0.022l0.119,-0.021l0.121,-0.02l0.121,-0.02l0.123,-0.018l0.124,-0.017l0.124,-0.016l0.126,-0.014l0.127,-0.014l0.128,-0.012l0.129,-0.011l0.13,-0.01l0.13,-0.008l0.132,-0.007l0.133,-0.006l0.133,-0.003l0.135,-0.003l0.135,0l0.137,0.001Zm-0.238,3.192l-0.096,0.001l-0.096,0.003l-0.095,0.004l-0.096,0.005l-0.095,0.006l-0.095,0.007l-0.094,0.008l-0.094,0.009l-0.094,0.01l-0.093,0.011l-0.093,0.012l-0.093,0.013l-0.093,0.014l-0.092,0.014l-0.091,0.015l-0.091,0.016l-0.091,0.017l-0.09,0.018l-0.09,0.018l-0.089,0.019l-0.089,0.019l-0.088,0.02l-0.088,0.021l-0.088,0.021l-0.086,0.022l-0.082,0.021l-0.176,0.048l-0.168,0.047l-0.166,0.049l-0.163,0.05l-0.162,0.051l-0.158,0.051l-0.157,0.052l-0.154,0.053l-0.152,0.052l-0.305,0.106l-0.294,0.101l-0.154,0.052l-0.155,0.05l-0.161,0.051l-0.17,0.05l-0.171,0.046l-0.109,0.026l-0.105,0.024l-0.113,0.023l-0.122,0.022l-0.132,0.02l-0.102,0.012l-0.012,0.001l-0.001,0.001l-0.005,0.002l-0.005,0.002l-0.007,0.003l-0.007,0.003l-0.008,0.004l-0.009,0.004l-0.01,0.005l-0.01,0.006l-0.011,0.006l-0.003,0.002l-0.036,0.021l-0.029,0.018l-0.032,0.021l-0.035,0.024l-0.037,0.027l-0.039,0.03l-0.042,0.033l-0.044,0.037l-0.045,0.039l-0.048,0.043l-0.049,0.046l-0.051,0.049l-0.051,0.053l-0.054,0.055l-0.054,0.059l-0.055,0.061l-0.056,0.065l-0.057,0.067l-0.058,0.071l-0.058,0.073l-0.059,0.076l-0.059,0.079l-0.059,0.081l-0.06,0.084l-0.06,0.087l-0.06,0.088l-0.06,0.092l-0.06,0.093l-0.06,0.096l-0.06,0.098l-0.059,0.1l-0.06,0.102l-0.059,0.104l-0.058,0.106l-0.059,0.108l-0.057,0.11l-0.058,0.111l-0.057,0.113l-0.056,0.114l-0.056,0.116l-0.055,0.117l-0.054,0.119l-0.054,0.119l-0.053,0.121l-0.052,0.123l-0.052,0.123l-0.05,0.124l-0.05,0.125l-0.049,0.126l-0.048,0.126l-0.047,0.128l-0.046,0.128l-0.046,0.128l-0.044,0.129l-0.043,0.13l-0.042,0.129l-0.041,0.131l-0.04,0.13l-0.039,0.13l-0.038,0.131l-0.037,0.13l-0.035,0.131l-0.035,0.13l-0.033,0.13l-0.032,0.13l-0.031,0.13l-0.029,0.129l-0.029,0.128l-0.027,0.128l-0.025,0.127l-0.025,0.127l-0.023,0.126l-0.022,0.125l-0.021,0.123l-0.019,0.123l-0.018,0.122l-0.017,0.12l-0.015,0.119l-0.014,0.118l-0.013,0.117l-0.011,0.114l-0.01,0.113l-0.009,0.112l-0.007,0.109l-0.006,0.107l-0.005,0.106l-0.003,0.103l-0.003,0.101l0,0.099l0,0.096l0.001,0.094l0.003,0.091l0.004,0.088l0.004,0.085l0.006,0.082l0.007,0.079l0.008,0.076l0.008,0.072l0.009,0.069l0.01,0.065l0.011,0.061l0.01,0.057l0.012,0.053l0.011,0.049l0.011,0.045l0.011,0.04l0.011,0.035l0.01,0.031l0.009,0.027l0.008,0.021l0.007,0.017l0.005,0.012l0.006,0.012l0.065,0.11l0.067,0.113l0.067,0.109l0.067,0.107l0.068,0.104l0.068,0.102l0.067,0.099l0.068,0.097l0.068,0.094l0.068,0.092l0.068,0.09l0.068,0.087l0.068,0.085l0.068,0.083l0.068,0.081l0.068,0.079l0.068,0.076l0.068,0.075l0.068,0.073l0.068,0.07l0.068,0.069l0.068,0.067l0.068,0.065l0.068,0.063l0.068,0.062l0.067,0.06l0.068,0.059l0.068,0.057l0.068,0.055l0.068,0.054l0.068,0.052l0.068,0.051l0.068,0.05l0.068,0.048l0.068,0.047l0.069,0.046l0.068,0.044l0.069,0.043l0.069,0.042l0.068,0.041l0.07,0.04l0.069,0.039l0.069,0.037l0.07,0.037l0.07,0.036l0.07,0.034l0.07,0.034l0.071,0.033l0.07,0.031l0.072,0.031l0.071,0.03l0.072,0.029l0.072,0.028l0.072,0.028l0.073,0.026l0.073,0.026l0.073,0.025l0.074,0.024l0.074,0.023l0.075,0.023l0.074,0.022l0.076,0.021l0.075,0.02l0.076,0.02l0.076,0.018l0.077,0.019l0.077,0.017l0.077,0.017l0.078,0.016l0.078,0.015l0.078,0.015l0.079,0.014l0.079,0.013l0.08,0.013l0.079,0.012l0.08,0.012l0.081,0.011l0.08,0.01l0.081,0.01l0.082,0.009l0.081,0.008l0.077,0.008l0.17,0.015l0.165,0.012l0.166,0.01l0.167,0.009l0.168,0.006l0.169,0.005l0.169,0.004l0.169,0.001l0.17,0.001l0.171,-0.001l0.17,-0.002l0.172,-0.002l0.169,-0.004l0.347,-0.009l0.691,-0.021l0.344,-0.009l0.178,-0.003l0.165,-0.003l0.114,-0.001l0.102,-0.002l0.102,-0.003l0.102,-0.003l0.101,-0.004l0.101,-0.004l0.1,-0.006l0.1,-0.005l0.099,-0.007l0.099,-0.007l0.098,-0.007l0.097,-0.008l0.098,-0.009l0.096,-0.009l0.096,-0.01l0.096,-0.01l0.095,-0.011l0.094,-0.012l0.094,-0.012l0.094,-0.013l0.093,-0.013l0.092,-0.014l0.092,-0.014l0.091,-0.015l0.091,-0.015l0.09,-0.016l0.089,-0.017l0.089,-0.017l0.089,-0.017l0.087,-0.018l0.088,-0.019l0.087,-0.019l0.086,-0.019l0.085,-0.02l0.085,-0.021l0.085,-0.02l0.083,-0.022l0.084,-0.022l0.082,-0.022l0.082,-0.023l0.082,-0.023l0.08,-0.024l0.081,-0.024l0.079,-0.025l0.079,-0.025l0.079,-0.026l0.077,-0.026l0.078,-0.026l0.076,-0.027l0.076,-0.027l0.075,-0.028l0.075,-0.028l0.074,-0.029l0.073,-0.028l0.073,-0.03l0.072,-0.029l0.072,-0.03l0.071,-0.031l0.07,-0.031l0.07,-0.031l0.069,-0.031l0.068,-0.032l0.067,-0.032l0.067,-0.033l0.067,-0.033l0.065,-0.033l0.066,-0.034l0.064,-0.033l0.064,-0.035l0.063,-0.034l0.062,-0.035l0.062,-0.035l0.061,-0.036l0.061,-0.035l0.059,-0.036l0.059,-0.037l0.059,-0.036l0.058,-0.037l0.057,-0.037l0.056,-0.038l0.056,-0.037l0.055,-0.038l0.055,-0.038l0.054,-0.039l0.053,-0.039l0.052,-0.038l0.052,-0.04l0.051,-0.039l0.051,-0.039l0.05,-0.04l0.049,-0.04l0.048,-0.04l0.048,-0.041l0.048,-0.04l0.046,-0.041l0.046,-0.041l0.045,-0.041l0.045,-0.041l0.044,-0.042l0.043,-0.042l0.043,-0.042l0.042,-0.042l0.041,-0.042l0.041,-0.042l0.04,-0.042l0.04,-0.043l0.038,-0.043l0.039,-0.043l0.037,-0.043l0.037,-0.043l0.036,-0.043l0.036,-0.044l0.035,-0.043l0.035,-0.044l0.034,-0.044l0.033,-0.044l0.032,-0.044l0.032,-0.045l0.032,-0.044l0.031,-0.044l0.03,-0.045l0.03,-0.045l0.029,-0.045l0.028,-0.045l0.028,-0.045l0.027,-0.045l0.027,-0.046l0.026,-0.045l0.026,-0.046l0.025,-0.046l0.024,-0.046l0.024,-0.046l0.023,-0.046l0.023,-0.046l0.022,-0.047l0.022,-0.046l0.021,-0.047l0.021,-0.047l0.02,-0.047l0.019,-0.047l0.019,-0.048l0.019,-0.047l0.017,-0.048l0.018,-0.048l0.017,-0.048l0.016,-0.048l0.016,-0.049l0.015,-0.048l0.015,-0.049l0.014,-0.049l0.013,-0.049l0.013,-0.05l0.013,-0.05l0.012,-0.05l0.011,-0.05l0.011,-0.05l0.011,-0.051l0.01,-0.051l0.009,-0.051l0.009,-0.052l0.008,-0.051l0.008,-0.052l0.007,-0.052l0.006,-0.053l0.006,-0.053l0.006,-0.053l0.005,-0.054l0.004,-0.053l0.004,-0.054l0.003,-0.055l0.003,-0.055l0.002,-0.055l0.001,-0.055l0.001,-0.056l0,-0.056l0,-0.057l-0.001,-0.057l-0.002,-0.057l-0.002,-0.058l-0.003,-0.058l-0.004,-0.058l-0.004,-0.059l-0.005,-0.059l-0.006,-0.06l-0.006,-0.06l-0.007,-0.06l-0.007,-0.061l-0.009,-0.061l-0.009,-0.062l-0.009,-0.062l-0.011,-0.063l-0.011,-0.063l-0.012,-0.063l-0.013,-0.064l-0.013,-0.064l-0.014,-0.065l-0.015,-0.065l-0.016,-0.066l-0.017,-0.066l-0.017,-0.066l-0.018,-0.067l-0.02,-0.068l-0.019,-0.068l-0.021,-0.068l-0.022,-0.068l-0.022,-0.07l-0.024,-0.069l-0.024,-0.07l-0.025,-0.071l-0.026,-0.071l-0.027,-0.071l-0.028,-0.072l-0.029,-0.072l-0.029,-0.073l-0.031,-0.073l-0.032,-0.073l-0.032,-0.074l-0.034,-0.075l-0.034,-0.074l-0.036,-0.076l-0.036,-0.076l-0.038,-0.076l-0.038,-0.076l-0.04,-0.077l-0.041,-0.077l-0.041,-0.078l-0.043,-0.078l-0.044,-0.079l-0.045,-0.078l-0.046,-0.08l-0.047,-0.079l-0.048,-0.08l-0.049,-0.081l-0.05,-0.081l-0.052,-0.081l-0.052,-0.081l-0.054,-0.082l-0.055,-0.082l-0.055,-0.083l-0.058,-0.083l-0.058,-0.083l-0.059,-0.084l-0.061,-0.084l-0.062,-0.084l-0.062,-0.084l-0.065,-0.085l-0.065,-0.085l-0.066,-0.086l-0.068,-0.086l-0.069,-0.086l-0.07,-0.086l-0.072,-0.087l-0.072,-0.087l-0.074,-0.087l-0.075,-0.088l-0.077,-0.088l-0.065,-0.074l-0.066,-0.073l-0.065,-0.072l-0.065,-0.072l-0.065,-0.07l-0.065,-0.069l-0.065,-0.068l-0.064,-0.067l-0.065,-0.065l-0.06,-0.061l-0.132,-0.131l-0.127,-0.122l-0.126,-0.118l-0.126,-0.115l-0.125,-0.111l-0.124,-0.106l-0.123,-0.104l-0.122,-0.099l-0.122,-0.096l-0.121,-0.093l-0.12,-0.089l-0.119,-0.086l-0.118,-0.082l-0.118,-0.08l-0.116,-0.076l-0.116,-0.074l-0.115,-0.07l-0.115,-0.067l-0.113,-0.065l-0.113,-0.062l-0.112,-0.059l-0.111,-0.057l-0.11,-0.055l-0.11,-0.051l-0.109,-0.05l-0.108,-0.047l-0.108,-0.045l-0.107,-0.042l-0.106,-0.041l-0.106,-0.038l-0.105,-0.037l-0.105,-0.034l-0.104,-0.032l-0.104,-0.031l-0.103,-0.029l-0.102,-0.027l-0.103,-0.025l-0.101,-0.023l-0.102,-0.022l-0.101,-0.02l-0.1,-0.019l-0.101,-0.017l-0.099,-0.016l-0.1,-0.014l-0.099,-0.012l-0.099,-0.011l-0.099,-0.01l-0.098,-0.009l-0.098,-0.007l-0.098,-0.005l-0.097,-0.005l-0.098,-0.003l-0.097,-0.002l-0.096,-0.001l-0.097,0.001Z" style="fill:#0071BA;"/>
            <path d="M132.876,43.048l0.126,0.002l0.128,0.005l0.13,0.005l0.131,0.008l0.133,0.008l0.135,0.01l0.136,0.011l0.137,0.012l0.139,0.014l0.139,0.014l0.14,0.016l0.141,0.017l0.141,0.017l0.142,0.018l0.284,0.039l0.285,0.042l0.283,0.043l0.281,0.046l0.278,0.046l0.274,0.047l0.268,0.048l0.516,0.094l0.482,0.089l0.44,0.081l0.201,0.036l0.187,0.033l0.172,0.028l0.155,0.024l0.104,0.016l0.103,0.017l0.105,0.019l0.104,0.021l0.106,0.022l0.105,0.024l0.106,0.025l0.107,0.027l0.106,0.028l0.107,0.03l0.108,0.031l0.107,0.033l0.108,0.034l0.108,0.035l0.108,0.037l0.109,0.038l0.108,0.039l0.108,0.04l0.109,0.042l0.108,0.043l0.109,0.044l0.109,0.046l0.108,0.046l0.108,0.048l0.109,0.048l0.108,0.05l0.108,0.051l0.107,0.052l0.108,0.053l0.107,0.053l0.107,0.055l0.107,0.056l0.106,0.057l0.106,0.057l0.106,0.059l0.105,0.059l0.104,0.06l0.105,0.061l0.103,0.061l0.103,0.063l0.103,0.063l0.102,0.064l0.101,0.064l0.101,0.065l0.1,0.066l0.099,0.066l0.099,0.067l0.097,0.068l0.097,0.068l0.097,0.068l0.095,0.069l0.094,0.07l0.094,0.07l0.092,0.07l0.092,0.071l0.091,0.071l0.089,0.071l0.089,0.072l0.087,0.072l0.087,0.073l0.085,0.072l0.084,0.073l0.083,0.073l0.081,0.073l0.047,0.044l0.046,0.044l0.045,0.046l0.043,0.046l0.043,0.047l0.041,0.048l0.041,0.049l0.039,0.049l0.038,0.051l0.038,0.051l0.036,0.052l0.036,0.052l0.034,0.054l0.034,0.054l0.033,0.054l0.032,0.055l0.031,0.056l0.03,0.057l0.03,0.057l0.028,0.057l0.028,0.058l0.028,0.059l0.026,0.059l0.026,0.059l0.05,0.12l0.047,0.121l0.045,0.123l0.043,0.124l0.041,0.124l0.039,0.126l0.038,0.125l0.036,0.127l0.035,0.126l0.033,0.126l0.065,0.252l0.061,0.249l0.061,0.245l0.061,0.24l0.031,0.117l0.031,0.115l0.039,0.143l0.037,0.142l0.035,0.142l0.033,0.14l0.031,0.14l0.03,0.14l0.028,0.138l0.025,0.138l0.024,0.138l0.023,0.136l0.02,0.136l0.019,0.136l0.016,0.134l0.015,0.134l0.014,0.133l0.011,0.133l0.01,0.132l0.008,0.131l0.006,0.131l0.004,0.129l0.003,0.13l0.001,0.128l-0.001,0.128l-0.002,0.127l-0.004,0.127l-0.006,0.125l-0.007,0.125l-0.01,0.125l-0.011,0.123l-0.012,0.124l-0.014,0.122l-0.016,0.122l-0.018,0.121l-0.019,0.12l-0.021,0.12l-0.022,0.119l-0.024,0.118l-0.026,0.117l-0.027,0.117l-0.029,0.117l-0.03,0.115l-0.032,0.115l-0.034,0.114l-0.035,0.114l-0.037,0.113l-0.038,0.112l-0.04,0.111l-0.041,0.111l-0.043,0.11l-0.045,0.109l-0.045,0.109l-0.048,0.108l-0.049,0.108l-0.05,0.106l-0.052,0.106l-0.054,0.106l-0.055,0.104l-0.056,0.104l-0.058,0.104l-0.059,0.102l-0.061,0.102l-0.062,0.102l-0.064,0.1l-0.065,0.1l-0.066,0.099l-0.068,0.099l-0.069,0.098l-0.071,0.097l-0.072,0.096l-0.073,0.096l-0.075,0.095l-0.076,0.095l-0.078,0.094l-0.079,0.093l-0.08,0.092l-0.081,0.092l-0.083,0.091l-0.084,0.09l-0.086,0.09l-0.087,0.089l-0.088,0.088l-0.089,0.088l-0.091,0.087l-0.092,0.086l-0.093,0.086l-0.095,0.085l-0.096,0.084l-0.097,0.084l-0.098,0.082l-0.1,0.083l-0.1,0.081l-0.102,0.081l-0.104,0.08l-0.104,0.08l-0.106,0.079l-0.106,0.078l-0.109,0.077l-0.109,0.077l-0.11,0.076l-0.112,0.075l-0.112,0.075l-0.114,0.074l-0.115,0.073l-0.116,0.073l-0.117,0.072l-0.119,0.071l-0.119,0.071l-0.121,0.07l-0.122,0.069l-0.122,0.069l-0.124,0.068l-0.125,0.067l-0.126,0.067l-0.127,0.065l-0.129,0.066l-0.129,0.064l-0.13,0.064l-0.131,0.063l-0.133,0.062l-0.133,0.062l-0.134,0.061l-0.136,0.061l-0.136,0.06l-0.137,0.059l-0.139,0.058l-0.139,0.058l-0.14,0.057l-0.142,0.056l-0.093,0.036l-0.094,0.036l-0.095,0.035l-0.097,0.034l-0.098,0.034l-0.098,0.032l-0.1,0.033l-0.101,0.031l-0.102,0.031l-0.103,0.03l-0.104,0.03l-0.105,0.028l-0.105,0.028l-0.107,0.028l-0.108,0.026l-0.108,0.026l-0.109,0.025l-0.11,0.025l-0.111,0.023l-0.112,0.023l-0.112,0.022l-0.113,0.021l-0.114,0.021l-0.114,0.02l-0.115,0.019l-0.116,0.018l-0.116,0.017l-0.117,0.017l-0.117,0.015l-0.118,0.015l-0.118,0.014l-0.119,0.013l-0.119,0.013l-0.12,0.011l-0.12,0.011l-0.121,0.01l-0.121,0.009l-0.121,0.008l-0.121,0.007l-0.122,0.006l-0.122,0.006l-0.123,0.004l-0.122,0.004l-0.123,0.003l-0.123,0.001l-0.123,0.001l-0.123,0l-0.123,-0.001l-0.124,-0.002l-0.123,-0.003l-0.124,-0.004l-0.123,-0.004l-0.124,-0.006l-0.123,-0.007l-0.123,-0.008l-0.124,-0.008l-0.123,-0.01l-0.123,-0.011l-0.123,-0.011l-0.122,-0.013l-0.123,-0.014l-0.122,-0.015l-0.122,-0.016l-0.122,-0.016l-0.121,-0.018l-0.121,-0.019l-0.121,-0.02l-0.12,-0.021l-0.12,-0.022l-0.12,-0.023l-0.119,-0.025l-0.119,-0.025l-0.118,-0.026l-0.118,-0.028l-0.117,-0.029l-0.116,-0.029l-0.116,-0.031l-0.116,-0.032l-0.115,-0.033l-0.114,-0.035l-0.113,-0.035l-0.113,-0.037l-0.112,-0.037l-0.111,-0.039l-0.111,-0.04l-0.109,-0.041l-0.109,-0.043l-0.108,-0.043l-0.108,-0.045l-0.106,-0.046l-0.105,-0.047l-0.105,-0.049l-0.103,-0.049l-0.103,-0.051l-0.101,-0.052l-0.101,-0.053l-0.099,-0.055l-0.099,-0.056l-0.097,-0.057l-0.096,-0.058l-0.095,-0.059l-0.094,-0.061l-0.093,-0.062l-0.091,-0.064l-0.09,-0.064l-0.089,-0.066l-0.088,-0.068l-0.086,-0.068l-0.085,-0.07l-0.084,-0.071l-0.082,-0.073l-0.081,-0.074l-0.079,-0.075l-0.078,-0.077l-0.077,-0.078l-0.075,-0.079l-0.073,-0.081l-0.072,-0.082l-0.071,-0.083l-0.068,-0.085l-0.068,-0.086l-0.065,-0.088l-0.064,-0.089l-0.062,-0.09l-0.061,-0.092l-0.058,-0.093l-0.057,-0.095l-0.055,-0.096l-0.037,-0.066l-0.035,-0.068l-0.036,-0.071l-0.036,-0.074l-0.035,-0.076l-0.035,-0.078l-0.035,-0.081l-0.034,-0.083l-0.034,-0.086l-0.034,-0.087l-0.034,-0.09l-0.033,-0.093l-0.033,-0.094l-0.033,-0.096l-0.032,-0.099l-0.032,-0.1l-0.032,-0.102l-0.031,-0.105l-0.031,-0.106l-0.03,-0.108l-0.03,-0.11l-0.03,-0.111l-0.029,-0.114l-0.028,-0.115l-0.029,-0.116l-0.027,-0.119l-0.028,-0.119l-0.026,-0.122l-0.027,-0.122l-0.025,-0.124l-0.026,-0.126l-0.024,-0.127l-0.024,-0.128l-0.024,-0.129l-0.023,-0.131l-0.022,-0.132l-0.022,-0.133l-0.021,-0.133l-0.021,-0.136l-0.02,-0.136l-0.019,-0.136l-0.019,-0.138l-0.018,-0.139l-0.017,-0.14l-0.016,-0.14l-0.016,-0.141l-0.016,-0.142l-0.014,-0.142l-0.014,-0.143l-0.013,-0.144l-0.012,-0.144l-0.011,-0.145l-0.011,-0.145l-0.01,-0.146l-0.009,-0.146l-0.008,-0.146l-0.007,-0.146l-0.007,-0.147l-0.005,-0.147l-0.005,-0.147l-0.004,-0.147l-0.003,-0.148l-0.002,-0.147l-0.002,-0.147l0,-0.147l0.001,-0.147l0.001,-0.147l0.003,-0.147l0.003,-0.147l0.005,-0.146l0.005,-0.146l0.007,-0.146l0.007,-0.145l0.009,-0.145l0.009,-0.144l0.011,-0.144l0.012,-0.143l0.012,-0.143l0.014,-0.141l0.015,-0.142l0.016,-0.14l0.017,-0.14l0.019,-0.139l0.019,-0.138l0.021,-0.137l0.022,-0.136l0.022,-0.136l0.025,-0.134l0.025,-0.133l0.027,-0.132l0.027,-0.131l0.029,-0.13l0.031,-0.128l0.031,-0.127l0.033,-0.126l0.034,-0.124l0.035,-0.123l0.037,-0.122l0.038,-0.12l0.039,-0.119l0.041,-0.117l0.042,-0.115l0.043,-0.114l0.045,-0.112l0.046,-0.11l0.048,-0.108l0.049,-0.107l0.05,-0.105l0.052,-0.103l0.053,-0.101l0.055,-0.098l0.056,-0.097l0.058,-0.095l0.059,-0.093l0.061,-0.09l0.062,-0.088l0.063,-0.086l0.066,-0.084l0.066,-0.081l0.069,-0.079l0.07,-0.077l0.071,-0.074l0.073,-0.071l0.075,-0.069l0.038,-0.034l0.038,-0.033l0.039,-0.032l0.039,-0.032l0.04,-0.031l0.04,-0.03l0.04,-0.029l0.041,-0.029l0.093,-0.064l0.094,-0.064l0.095,-0.063l0.096,-0.063l0.194,-0.125l0.196,-0.123l0.197,-0.121l0.199,-0.118l0.2,-0.117l0.199,-0.113l0.198,-0.111l0.197,-0.109l0.195,-0.105l0.192,-0.102l0.189,-0.098l0.185,-0.096l0.181,-0.091l0.175,-0.088l0.17,-0.083l0.163,-0.079l0.156,-0.075l0.148,-0.071l0.272,-0.127l0.233,-0.106l0.19,-0.086l0.142,-0.062l0.12,-0.052l0.037,-0.015l0.038,-0.015l0.039,-0.014l0.04,-0.014l0.042,-0.013l0.042,-0.012l0.043,-0.012l0.044,-0.011l0.045,-0.011l0.046,-0.01l0.095,-0.018l0.098,-0.017l0.102,-0.014l0.105,-0.012l0.108,-0.009l0.111,-0.008l0.113,-0.006l0.117,-0.004l0.119,-0.003l0.121,0l0.124,0.001Zm-0.206,3.192l-0.07,0.001l-0.064,0.002l-0.057,0.003l-0.049,0.004l-0.041,0.003l-0.012,0.002l-0.095,0.042l-0.17,0.076l-0.211,0.096l-0.251,0.117l-0.132,0.063l-0.143,0.069l-0.149,0.072l-0.154,0.077l-0.16,0.079l-0.164,0.083l-0.168,0.086l-0.17,0.089l-0.173,0.092l-0.174,0.094l-0.176,0.096l-0.175,0.099l-0.174,0.099l-0.174,0.101l-0.171,0.102l-0.168,0.103l-0.164,0.103l-0.164,0.105l-0.073,0.049l-0.077,0.051l-0.074,0.05l-0.068,0.047l-0.004,0.003l-0.001,0l-0.011,0.011l-0.008,0.008l-0.01,0.01l-0.011,0.012l-0.013,0.016l-0.015,0.018l-0.017,0.021l-0.017,0.024l-0.019,0.027l-0.021,0.03l-0.021,0.033l-0.022,0.037l-0.023,0.04l-0.024,0.043l-0.025,0.046l-0.024,0.049l-0.026,0.053l-0.025,0.055l-0.026,0.059l-0.026,0.062l-0.026,0.065l-0.026,0.067l-0.025,0.071l-0.026,0.073l-0.025,0.076l-0.025,0.078l-0.024,0.082l-0.024,0.083l-0.024,0.086l-0.023,0.089l-0.022,0.09l-0.022,0.093l-0.021,0.095l-0.021,0.097l-0.02,0.099l-0.019,0.101l-0.019,0.103l-0.017,0.104l-0.017,0.107l-0.017,0.108l-0.015,0.109l-0.015,0.111l-0.013,0.113l-0.013,0.113l-0.013,0.115l-0.011,0.117l-0.01,0.117l-0.01,0.119l-0.009,0.119l-0.008,0.121l-0.007,0.121l-0.006,0.123l-0.006,0.123l-0.005,0.124l-0.003,0.124l-0.003,0.126l-0.002,0.125l-0.002,0.127l0,0.126l0,0.127l0.001,0.128l0.002,0.127l0.002,0.128l0.004,0.128l0.004,0.128l0.005,0.128l0.006,0.128l0.006,0.129l0.007,0.127l0.008,0.128l0.009,0.128l0.009,0.127l0.01,0.127l0.011,0.126l0.011,0.126l0.012,0.126l0.013,0.124l0.013,0.125l0.014,0.123l0.015,0.123l0.015,0.122l0.015,0.121l0.017,0.12l0.016,0.12l0.018,0.118l0.017,0.117l0.019,0.116l0.019,0.115l0.019,0.113l0.02,0.112l0.02,0.111l0.02,0.109l0.021,0.108l0.022,0.106l0.021,0.105l0.022,0.102l0.023,0.101l0.022,0.099l0.023,0.097l0.023,0.096l0.023,0.093l0.024,0.09l0.023,0.089l0.024,0.086l0.023,0.084l0.024,0.081l0.023,0.079l0.024,0.076l0.023,0.073l0.023,0.07l0.023,0.067l0.022,0.064l0.022,0.06l0.021,0.057l0.021,0.054l0.02,0.049l0.019,0.046l0.018,0.042l0.016,0.037l0.015,0.033l0.014,0.028l0.012,0.023l0.009,0.018l0.007,0.013l0.023,0.04l0.023,0.039l0.025,0.038l0.025,0.038l0.026,0.038l0.026,0.037l0.028,0.037l0.029,0.037l0.03,0.037l0.03,0.037l0.032,0.036l0.033,0.036l0.034,0.036l0.036,0.036l0.036,0.036l0.038,0.036l0.039,0.035l0.04,0.036l0.042,0.036l0.043,0.035l0.045,0.035l0.045,0.035l0.047,0.035l0.049,0.035l0.05,0.035l0.051,0.034l0.053,0.034l0.054,0.034l0.056,0.034l0.057,0.034l0.058,0.033l0.06,0.033l0.062,0.032l0.062,0.032l0.064,0.032l0.066,0.031l0.066,0.031l0.069,0.031l0.069,0.03l0.071,0.029l0.071,0.029l0.074,0.029l0.074,0.028l0.076,0.027l0.077,0.027l0.078,0.026l0.079,0.026l0.08,0.025l0.081,0.024l0.082,0.024l0.084,0.023l0.084,0.022l0.085,0.022l0.086,0.021l0.087,0.02l0.088,0.02l0.089,0.019l0.089,0.018l0.091,0.018l0.091,0.017l0.091,0.016l0.093,0.015l0.093,0.014l0.093,0.014l0.095,0.013l0.094,0.012l0.096,0.012l0.095,0.011l0.097,0.01l0.096,0.009l0.097,0.008l0.097,0.008l0.098,0.007l0.098,0.006l0.098,0.005l0.099,0.005l0.098,0.004l0.099,0.003l0.099,0.002l0.099,0.002l0.099,0.001l0.099,0l0.099,-0.001l0.099,-0.001l0.099,-0.003l0.098,-0.003l0.099,-0.003l0.099,-0.005l0.098,-0.005l0.098,-0.005l0.097,-0.007l0.098,-0.007l0.097,-0.008l0.097,-0.009l0.096,-0.009l0.096,-0.01l0.095,-0.01l0.095,-0.012l0.094,-0.012l0.094,-0.012l0.093,-0.013l0.093,-0.014l0.091,-0.014l0.091,-0.015l0.091,-0.016l0.089,-0.016l0.089,-0.017l0.087,-0.017l0.087,-0.018l0.086,-0.018l0.085,-0.019l0.084,-0.019l0.083,-0.02l0.082,-0.02l0.081,-0.021l0.079,-0.021l0.079,-0.022l0.077,-0.021l0.075,-0.023l0.075,-0.022l0.073,-0.023l0.072,-0.023l0.07,-0.023l0.068,-0.024l0.068,-0.024l0.065,-0.024l0.064,-0.024l0.065,-0.025l0.119,-0.048l0.121,-0.049l0.12,-0.05l0.119,-0.05l0.117,-0.05l0.116,-0.051l0.115,-0.051l0.114,-0.052l0.113,-0.052l0.111,-0.053l0.111,-0.053l0.109,-0.054l0.108,-0.053l0.106,-0.055l0.106,-0.054l0.104,-0.055l0.103,-0.056l0.102,-0.056l0.1,-0.056l0.1,-0.056l0.097,-0.057l0.097,-0.057l0.096,-0.058l0.094,-0.057l0.093,-0.058l0.091,-0.059l0.09,-0.059l0.089,-0.059l0.088,-0.059l0.086,-0.059l0.085,-0.06l0.084,-0.06l0.082,-0.06l0.082,-0.061l0.079,-0.061l0.079,-0.061l0.077,-0.061l0.076,-0.061l0.074,-0.062l0.074,-0.061l0.072,-0.062l0.07,-0.063l0.07,-0.062l0.068,-0.062l0.066,-0.063l0.066,-0.062l0.064,-0.063l0.063,-0.063l0.061,-0.063l0.06,-0.064l0.059,-0.063l0.058,-0.063l0.057,-0.064l0.055,-0.064l0.054,-0.063l0.053,-0.064l0.051,-0.064l0.051,-0.064l0.049,-0.064l0.048,-0.065l0.047,-0.064l0.045,-0.065l0.045,-0.064l0.043,-0.065l0.042,-0.065l0.041,-0.065l0.04,-0.065l0.039,-0.065l0.038,-0.065l0.037,-0.066l0.035,-0.066l0.035,-0.066l0.033,-0.066l0.033,-0.066l0.031,-0.067l0.031,-0.067l0.029,-0.067l0.029,-0.067l0.027,-0.068l0.027,-0.068l0.025,-0.068l0.025,-0.069l0.024,-0.069l0.022,-0.07l0.022,-0.07l0.021,-0.07l0.019,-0.071l0.019,-0.071l0.018,-0.072l0.017,-0.073l0.016,-0.073l0.015,-0.074l0.014,-0.074l0.013,-0.075l0.012,-0.076l0.011,-0.076l0.01,-0.078l0.009,-0.078l0.008,-0.078l0.007,-0.08l0.006,-0.08l0.005,-0.081l0.004,-0.083l0.003,-0.083l0.001,-0.083l0.001,-0.085l-0.001,-0.086l-0.002,-0.087l-0.003,-0.088l-0.004,-0.089l-0.006,-0.089l-0.006,-0.091l-0.008,-0.092l-0.009,-0.093l-0.011,-0.094l-0.012,-0.095l-0.013,-0.096l-0.015,-0.098l-0.016,-0.098l-0.017,-0.1l-0.019,-0.101l-0.02,-0.102l-0.022,-0.103l-0.023,-0.104l-0.025,-0.105l-0.027,-0.107l-0.028,-0.107l-0.034,-0.125l-0.034,-0.128l-0.038,-0.144l-0.067,-0.262l-0.062,-0.253l-0.059,-0.237l-0.058,-0.226l-0.026,-0.099l-0.027,-0.098l-0.027,-0.093l-0.026,-0.089l-0.026,-0.083l-0.025,-0.077l-0.025,-0.071l-0.024,-0.066l-0.023,-0.059l-0.026,-0.062l-0.007,-0.015l-0.01,-0.023l-0.01,-0.02l-0.009,-0.019l-0.008,-0.017l-0.008,-0.016l-0.008,-0.014l-0.007,-0.012l-0.006,-0.01l-0.005,-0.009l-0.005,-0.008l-0.001,-0.002l-0.035,-0.031l-0.062,-0.055l-0.064,-0.055l-0.065,-0.056l-0.066,-0.055l-0.068,-0.056l-0.068,-0.056l-0.07,-0.055l-0.071,-0.056l-0.072,-0.056l-0.073,-0.055l-0.074,-0.055l-0.075,-0.055l-0.075,-0.055l-0.077,-0.055l-0.077,-0.054l-0.078,-0.054l-0.079,-0.053l-0.079,-0.053l-0.08,-0.053l-0.081,-0.052l-0.081,-0.051l-0.081,-0.051l-0.082,-0.051l-0.083,-0.05l-0.082,-0.049l-0.083,-0.048l-0.083,-0.048l-0.084,-0.047l-0.084,-0.046l-0.083,-0.046l-0.084,-0.044l-0.084,-0.044l-0.084,-0.043l-0.083,-0.042l-0.084,-0.041l-0.083,-0.04l-0.084,-0.04l-0.083,-0.038l-0.082,-0.037l-0.082,-0.036l-0.082,-0.035l-0.082,-0.034l-0.08,-0.033l-0.081,-0.032l-0.079,-0.03l-0.079,-0.03l-0.078,-0.028l-0.077,-0.027l-0.076,-0.026l-0.076,-0.024l-0.074,-0.024l-0.073,-0.022l-0.072,-0.021l-0.071,-0.02l-0.069,-0.018l-0.068,-0.017l-0.067,-0.016l-0.065,-0.015l-0.064,-0.013l-0.062,-0.012l-0.06,-0.011l-0.058,-0.01l-0.08,-0.012l-0.175,-0.027l-0.203,-0.034l-0.208,-0.036l-0.217,-0.039l-0.448,-0.082l-0.479,-0.089l-0.505,-0.092l-0.254,-0.045l-0.259,-0.045l-0.26,-0.043l-0.261,-0.042l-0.259,-0.04l-0.257,-0.038l-0.258,-0.035l-0.121,-0.016l-0.124,-0.015l-0.121,-0.014l-0.12,-0.013l-0.118,-0.013l-0.115,-0.011l-0.113,-0.01l-0.11,-0.009l-0.107,-0.008l-0.103,-0.007l-0.1,-0.005l-0.096,-0.004l-0.091,-0.003l-0.087,-0.002l-0.082,-0.001l-0.076,0.001Z" style="fill:#0071BA;"/>
        </g>
        <g id="back">
            <path d="M56.167,106.918c-1.371,1.409 -10.386,8.53 -12.19,12.092c-0.368,0.727 9.152,10.912 9.929,8.854" style="fill:none;stroke:#0071BA;stroke-width:3.19px;"/>
            <path d="M46.874,118.973c3.381,-0.048 15.982,1.212 20.369,-0.851c0.088,-0.041 0.242,0.001 0.303,0.058c0.464,0.436 2.474,0.805 2.474,-0.143" style="fill:none;stroke:#0071BA;stroke-width:3.19px;"/>
        </g>
        <g id="forward">
            <path d="M97.904,118.238c6.135,0.11 11.831,0.101 17.868,-0.343c1.793,-0.132 6.579,0.656 5.281,-0.085" style="fill:none;stroke:#0071BA;stroke-width:3.19px;"/>
            <path d="M113.355,104.948c4.882,5.01 5.962,5.788 10.443,8.94c0.343,0.241 4.277,2.908 4.195,3.009c-3.272,4.071 -7.866,7.599 -11.227,11.607c-0.292,0.349 -0.024,0.591 0.333,0.255" style="fill:none;stroke:#0071BA;stroke-width:3.19px;"/>
        </g>
        <path id="URL-bar" d="M164.932,102.224c-0.757,9.143 -0.333,18 -0.333,27.104c0,0.221 0.394,-0.242 0.604,-0.34c4.801,-2.258 11.336,0.323 16.328,-0.171c10.73,-1.06 21.669,-0.534 32.441,-0.85c32.297,-0.949 65.142,0.573 97.411,-0.923c21.113,-0.98 416.561,0.968 423.133,0.439c1.867,-0.151 3.951,-3.74 5.805,-3.261c0.002,0 3.542,-21.643 -0.49,-25.434c-3.119,-2.933 -373.333,-1.504 -379.879,-1.263c-39.312,1.452 -78.729,-1.317 -117.944,-1.828c-17.272,-0.225 -35.197,1.067 -52.509,1.251c-6.043,0.064 -11.943,0.751 -17.959,1.048c-1.389,0.069 -8.585,1.589 -7.545,1.589" style="fill:none;stroke:#0071BA;stroke-width:3.19px;"/>
        <g id="tabs">
            <path id="first-tab" d="M24.311,84.153c7.259,0.83 29.866,-0.528 35.017,-0.261c17.62,0.911 29.487,-0.948 47.15,-0.081c9.21,0.451 33.874,0.501 41.958,-2.624c7.453,-2.881 13.694,-20.851 15.254,-27.727c2.962,-13.05 15.063,-12.468 18.369,-12.588c8.424,-0.304 17.327,0.558 25.677,-0.439c3.629,-0.433 14.008,-0.25 16.572,7.904c1.294,4.116 5.216,17.8 5.866,20.358c0.838,3.296 3.192,8.008 7.084,9.646c4.797,2.018 7.377,1.253 12.541,1.455c11.793,0.461 47.235,-0.054 53.168,-0.383c22.096,-1.223 45.321,0.712 67.459,0.499c13.268,-0.128 24.659,-0.476 37.929,-0.548c4.65,-0.025 405.266,-0.17 403.892,-0.799" style="fill:none;stroke:#0071BA;stroke-width:3.2px;"/>
            <path id="second-tab" d="M228.164,62.325c1.767,-7.638 4.637,-14.924 8.012,-18.09c7.193,-6.749 19.844,-3.829 28.595,-3.392c3.186,0.16 10.708,-1.645 13.331,0.404c5.781,4.516 4.982,34.097 12.698,36.42c4.984,1.5 21.364,2.447 21.436,1.509" style="fill:none;stroke:#0071BA;stroke-width:3.19px;"/>
            <path id="third-tab" d="M284.121,50.635c9.671,-12.599 16.612,-9.217 32.369,-9.217c4.629,0 12.249,-1.596 15.889,2.064c4.52,4.543 6.93,19.368 8.306,25.84c0.237,1.111 0.64,2.446 1.132,3.47c0.53,1.105 0.902,3.505 2.059,4.173c0.688,0.398 10.028,3.524 10.193,2.388" style="fill:none;stroke:#0071BA;stroke-width:3.19px;"/>
        </g>
        <path id="Chrome-content-line" d="M22.695,146.649c21.298,0.565 42.773,0.595 63.078,-0.362c68.358,-3.22 136.627,0.308 205.126,-0.782c29.981,-0.476 59.914,-1.09 89.902,-0.965c9.844,0.041 19.923,-0.347 29.725,0.653c3.184,0.325 404.338,-2.323 404.072,-2.301" style="fill:none;stroke:#0071BA;stroke-width:3.19px;"/>
    </g>
    <g id="PAGE">
        <path d="M419.483,332.016c-1.041,-24.423 -1.597,-88.228 -1.597,-112.536c0,-8.981 0.236,-17.972 0.236,-26.968c0,-3.47 -0.811,-12.85 1.853,-10.282c0.404,0.39 -0.627,1.661 -0.809,2.036c-0.41,0.848 -37.918,19.482 -11.264,2.647c2.516,-1.589 5.217,-2.986 8.007,-4.172c14.376,-6.107 12.924,4.12 25.909,12.722c1.385,0.917 1.157,0.589 1.157,-0.718" style="fill:none;stroke:#f2d865;stroke-width:8.33px;"/>
        <path d="M418.862,627.03c-0.051,46.548 -3.586,184.169 7.977,228.942c0.966,3.74 -3.594,-6.444 -6.031,-8.64c-6.352,-5.727 -21.597,-15.371 -24.977,-24.511c-0.115,-0.312 -0.57,-2.111 -0.235,-0.774c13.767,54.963 60.769,14.311 55.176,-8.019" style="fill:none;stroke:#f2d865;stroke-width:8.33px;"/>
        <path d="M233.804,474.331c-13.318,-0.647 -175.519,4.42 -178.663,0.696c-3.384,-4.008 23.95,-20.535 23.95,-23.236c0,-5.479 -8.448,6.113 -12.737,9.063c-20.848,14.338 -19.884,22.118 -0.97,39.723c1.478,1.375 2.179,3.093 3.995,0.348" style="fill:none;stroke:#f2d865;stroke-width:8.33px;"/>
        <path d="M591.562,472.927c50.427,-6.632 103.243,-6.801 154.131,-5.571c8.792,0.213 17.885,0.595 26.681,0.113c32.949,-1.808 -13.664,-18.557 -25.271,-32.289c-1.663,-1.967 0.095,5.69 1.618,7.783c2.76,3.792 6.303,6.77 9.942,9.524c5.413,4.097 29.04,14.724 31.536,20.092c2.291,4.927 -47.705,24.208 -39.64,32.883" style="fill:none;stroke:#f2d865;stroke-width:8.33px;"/>
        <g transform="matrix(1.30169,0,0,0.418446,-1366.93,-113.811)">
            <g transform="matrix(0.768229,0,0,2.3898,248.022,-1633.41)">
                <text x="1317.06px" y="1361.95px" style="font-family:'SooperSerifThinCondensed', 'Sooper Serif';font-weight:250;font-stretch:condensed;font-size:266.667px;fill:#006fb1;">P<tspan x="1368.26px 1463.73px 1536px " y="1361.95px 1361.95px 1361.95px ">AGE</tspan></text>
            </g>
        </g>
    </g>
    <g id="COMPONENTs">
        <text x="147.42px" y="341.715px" style="font-family:'SooperSerifThinCondensed2x', 'Sooper Serif';font-weight:250;font-stretch:condensed;font-size:208.333px;fill:#006fb1;">C<tspan x="195.753px 249.711px 332.003px 388.461px 443.461px 516.378px 568.045px 638.878px " y="341.715px 341.715px 341.715px 341.715px 341.715px 341.715px 341.715px 341.715px ">OMPONENT</tspan></text>
        <g transform="matrix(0.370889,0,0,0.718792,-350.296,-331.489)">
            <g transform="matrix(2.69623,0,0,1.39122,-1815.16,-459.799)">
                <text x="1117.04px" y="1281.02px" style="font-family:'SooperSerifThinCondensed2x', 'Sooper Serif';font-weight:250;font-stretch:condensed;font-size:145.833px;fill:#006fb1;stroke:#006fb1;stroke-width:0.63px;stroke-linecap:butt;stroke-miterlimit:1.41421;">C<tspan x="1150.87px 1188.64px " y="1281.02px 1281.02px ">OM</tspan></text>
                <text x="1117.84px" y="1389.35px" style="font-family:'SooperSerifThinCondensed2x', 'Sooper Serif';font-weight:250;font-stretch:condensed;font-size:145.833px;fill:#006fb1;stroke:#006fb1;stroke-width:0.63px;stroke-linecap:butt;stroke-miterlimit:1.41421;">P<tspan x="1157.36px 1195.86px " y="1389.35px 1389.35px ">ON</tspan></text>
                <text x="1122.14px" y="1497.68px" style="font-family:'SooperSerifThinCondensed2x', 'Sooper Serif';font-weight:250;font-stretch:condensed;font-size:145.833px;fill:#006fb1;stroke:#006fb1;stroke-width:0.63px;stroke-linecap:butt;stroke-miterlimit:1.41421;">E<tspan x="1158.31px 1207.89px " y="1497.68px 1497.68px ">NT</tspan></text>
            </g>
        </g>
        <path d="M41.773,177.376c1.018,78.581 2.915,195.03 0.156,273.047c-0.057,1.615 1.434,8.632 2.416,10.181c0.135,0.214 2.938,-0.372 3.257,-0.372c36.572,0 71.632,-2.357 108.409,-2.981c125.506,-2.13 250.981,-5.81 378.085,-5.801c24.367,0.002 260.646,-1.329 262.083,-3.596c0.752,-1.186 -2.673,-1.069 -2.673,-2.746c0,-42.83 -1.366,-86.843 -1.366,-130.845c0,-37.154 -2.806,-77.716 0.504,-114.444c0.438,-4.85 2.663,-27.681 0.278,-31.444c-2.331,-3.677 -94.709,-2.236 -137.071,-2.236c-89.517,0 -179.348,5.395 -268.964,2.709c-53.928,-1.617 -107.474,-2.364 -160.704,-2.364c-40.325,0 -183.783,-0.97 -183.783,5.588" style="fill:none;stroke:#f2d865;stroke-width:4.17px;"/>
        <path d="M271.88,874.639c0.672,-118.137 3.937,-234.578 -3.249,-348.373c-0.386,-6.103 0.078,-46.684 -3.022,-46.979c-55.555,-5.296 -101.801,-0.845 -145.549,0.671c-14.23,0.494 -87.212,3.734 -75.895,1.599c0,0 7.841,235.462 4.411,389.193" style="fill:none;stroke:#f2d865;stroke-width:4.17px;"/>
        <path d="M293.101,488.54c2.564,36.837 1.865,73.395 1.865,110.267c0,19.035 1.276,23.038 29.963,23.94c31.742,0.999 63.646,0.575 95.268,-0.462c8.869,-0.291 97.217,-1.314 101.219,-3.958c5.956,-3.934 2.936,-22.763 2.759,-41.296c-0.38,-39.719 3.094,-63.14 -4.687,-96.864c-0.467,-2.021 -4.61,-0.62 -15.266,-0.847c-25.445,-0.543 -116.849,3.236 -147.642,1.869c-16.914,-0.751 -31.805,-2.034 -48.261,-0.632c-3.247,0.277 -21.25,0.538 -14.328,0.047" style="fill:none;stroke:#f2d865;stroke-width:4.17px;"/>
        <path d="M545.964,481.71c0.39,34.648 3.086,69.196 2.777,103.864c-0.398,44.816 -7.646,40.182 27.764,38.942c39.636,-1.386 70.386,-0.397 110.114,-1.626c10.153,-0.314 97.876,0.497 102.528,-1.945c0.171,-0.09 0.484,-7.736 0.68,-10.235c1.278,-16.329 3.892,-129.425 -1.364,-130.959c-9.242,-2.698 -107.911,-1.679 -140.757,-0.146c-16.822,0.785 -63.891,0.631 -80.234,1.635c-6.582,0.405 -21.508,0.47 -21.508,0.47Z" style="fill:none;stroke:#f2d865;stroke-width:4.17px;"/>
        <g>
            <path d="M381.519,655.874c-0.977,46.298 2.082,170.733 -1.809,215.894c-0.424,4.913 1.1,-0.179 1.474,-4.07" style="fill:none;stroke:#f2d865;stroke-width:4.17px;"/>
            <path d="M381.972,650.361c101.582,-3.155 204.037,-4.419 304.704,-4.419c2.169,0 19.971,-2.297 23.293,1.909c7.334,9.288 0.553,63.838 1.436,93.042c0.599,19.808 4.907,111.328 3.291,130.065" style="fill:none;stroke:#f2d865;stroke-width:4.17px;"/>
        </g>
        <text x="580.39px" y="575.363px" style="font-family:'SooperSerifThinCondensed', 'Sooper Serif';font-weight:250;font-stretch:condensed;font-size:62.5px;fill:#006fb1;">C<tspan x="597.203px 614.828px 644.828px 661.265px 679.265px 700.765px 718.453px 740.953px " y="575.363px 575.363px 575.363px 575.363px 575.363px 575.363px 575.363px 575.363px ">OMPONENT</tspan></text>
        <path d="M438.54,778.187c-4.411,0.567 -8.82,1.143 -13.232,1.701c-10.652,1.348 -21.449,1.398 -32.084,2.378c-0.261,0.024 -1.398,0.226 -1.624,0c-1.338,-1.338 9.839,-7.81 11.607,-8.28c0.072,-0.019 1.004,-0.11 0.87,-0.318c-1.109,-1.718 -8.797,3.945 -9.467,4.558c-2.287,2.091 -4.675,4.096 -6.932,6.219c-0.099,0.093 -0.76,0.633 -0.555,0.594c5.656,-1.088 9.729,16.332 15.924,12.002" style="fill:none;stroke:#f2d865;stroke-width:2.29px;"/>
        <path d="M645.395,779.968c11.796,-1.402 25.175,-4.218 37.232,-2.772c4.262,0.511 8.353,0.512 12.638,0.394c2.169,-0.06 8.1,1.027 6.495,-0.433c-3.517,-3.197 -12.498,-6.373 -14.576,-10.34c-0.971,-1.853 3.333,2.719 5.346,3.29c3.318,0.94 10.78,3.132 11.727,7.326c0.291,1.29 -11.7,10.367 -13.469,11.252c-0.845,0.422 -1.992,0.869 -2.93,0.869" style="fill:none;stroke:#f2d865;stroke-width:2.29px;"/>
        <path d="M542.68,711.44c-1.656,-17.984 -4.24,-36.196 -4.24,-54.228c0,-2.041 -3.367,2.34 -4.833,3.761c-1.464,1.42 -8.436,5.239 -8.436,7.449c0,0.099 3.971,-2.494 6.774,-4.079c2.256,-1.275 9.884,-4.161 11.091,-6.575c0.453,-0.906 1.769,0.988 2.616,1.543c5.293,3.471 12.04,5.87 12.04,12.596" style="fill:none;stroke:#f2d865;stroke-width:2.29px;"/>
        <path d="M547.67,836.532c-0.431,7.459 -4.787,31.261 1.03,38.308" style="fill:none;stroke:#f2d865;stroke-width:2.29px;"/>
        <path d="M147.831,846.516c-0.231,4.294 -0.123,22.751 0.337,28.456" style="fill:none;stroke:#f2d865;stroke-width:2.29px;"/>
        <path d="M88.096,676.028c-4.08,0.145 -8.16,0.29 -12.24,0.436c-0.718,0.026 -14.074,1.39 -14.817,0.038c-1.702,-3.094 8.479,-7.78 8.479,-10.022c0,-1.827 -2.367,2.785 -3.527,4.198c-1.356,1.651 -6.349,6.288 -5.545,8.915c1.146,3.747 11.928,8.783 11.209,9.861" style="fill:none;stroke:#f2d865;stroke-width:2.29px;"/>
        <path d="M228.2,674.997c4.516,-0.079 9.033,-0.166 13.549,-0.237c2.575,-0.041 4.991,0.557 7.445,1.268c1.471,0.426 3.003,0.988 4.557,0.988c15.8,0 -5.825,-6.725 -5.825,-10.773c0,-0.851 1.119,1.294 1.785,1.823c1.245,0.987 2.63,1.817 4.002,2.612c1.392,0.805 12.809,5.87 12.24,7.965c-0.275,1.01 -19.248,10.124 -22.461,12.198" style="fill:none;stroke:#f2d865;stroke-width:2.29px;"/>
        <path d="M164.467,506.332c-0.323,-5.226 -0.755,-9.791 -0.755,-14.779c0,-0.409 0.776,-5.196 0.475,-5.346c-1.557,-0.779 -4.824,4.321 -5.503,5.227c-0.16,0.213 -2.824,3.733 -2.535,3.884c1.424,0.746 10.336,-9.176 12.952,-9.586c2.003,-0.314 10.339,7.487 9.149,7.487" style="fill:none;stroke:#f2d865;stroke-width:2.29px;"/>
        <path d="M140.631,284.859c-19.269,0.065 -39.82,-1.189 -59.023,0.953c-2.578,0.288 -17.815,3.344 -19.925,1.425c-0.403,-0.366 8.113,-5.532 8.835,-5.821c1.042,-0.418 4.269,-0.933 3.167,-1.149c-2.078,-0.407 -5.174,1.673 -6.813,2.654c-8.071,4.832 -9.776,10.313 0.873,15.208c1.583,0.727 2.374,-0.08 2.374,1.746" style="fill:none;stroke:#f2d865;stroke-width:2.29px;"/>
        <path d="M685.449,278.165c24.679,-4.205 50.468,-1.889 75.502,-2.337c2.694,-0.048 22.22,2.13 24.835,-1.187c0.251,-0.317 -2.493,-1.472 -2.772,-1.666c-1.692,-1.169 -3.151,-2.567 -4.952,-3.603c-2.91,-1.675 -11.011,-7.326 -14.3,-7.326c-0.294,0 0.833,0.88 6.062,3.959c3.837,2.26 12.596,4.995 12.596,10.536c0,8.308 -10.521,4.656 -16.123,8.161c-2.842,1.778 -3.588,5.125 -5.702,7.525" style="fill:none;stroke:#f2d865;stroke-width:2.29px;"/>
        <text x="321.506px" y="573.664px" style="font-family:'SooperSerifThinCondensed', 'Sooper Serif';font-weight:250;font-stretch:condensed;font-size:62.5px;fill:#006fb1;">C<tspan x="338.319px 355.944px 385.944px 402.381px 420.381px 441.881px 459.569px 482.069px " y="573.664px 573.664px 573.664px 573.664px 573.664px 573.664px 573.664px 573.664px ">OMPONENT</tspan></text>
        <text x="300.157px" y="417.207px" style="font-family:'SooperSerifThinCondensed', 'Sooper Serif';font-weight:250;font-stretch:condensed;font-size:62.5px;fill:#006fb1;">SU<tspan x="334.657px 350.657px 367.782px 384.594px 402.219px 432.219px 448.657px 466.657px 488.157px 505.844px 528.344px " y="417.207px 417.207px 417.207px 417.207px 417.207px 417.207px 417.207px 417.207px 417.207px 417.207px 417.207px ">B-COMPONENT</tspan></text>
        <path d="M251.273,376.92c2.628,16.153 -5.459,49.347 1.172,55.228c6.26,5.552 124.161,2.181 158.439,2.181c9.742,0 155.282,0.268 156.646,-0.803c1.745,-1.371 0.821,-40.408 -0.576,-57.189c-1.994,-23.942 -10.631,-18.389 -42.315,-18.389c-47.927,0 -95.997,-1.915 -143.765,0.933c-28.661,1.709 -58.121,1.231 -86.692,1.023c-13.312,-0.097 -49.384,-5.4 -39.948,2.012" style="fill:none;stroke:#f2d865;stroke-width:4.17px;"/>
        <path d="M59.835,204.494c0.653,16.153 -1.356,49.346 0.292,55.228c1.555,5.551 30.854,2.18 39.373,2.18c2.421,0 38.588,0.269 38.927,-0.803c0.434,-1.371 0.204,-40.407 -0.143,-57.188c-0.495,-23.942 -2.642,-18.389 -10.515,-18.389c-11.911,0 -23.856,-1.915 -35.727,0.933c-7.122,1.709 -14.443,1.23 -21.543,1.023c-3.309,-0.097 -12.273,-5.401 -9.928,2.012" style="fill:none;stroke:#f2d865;stroke-width:4.17px;"/>
        <g transform="matrix(1,0,0,1,-657.125,-453.253)">
            <text x="1133.8px" y="1219.04px" style="font-family:'SooperSerifThinCondensed', 'Sooper Serif';font-weight:250;font-stretch:condensed;font-size:62.5px;fill:#006fb1;">A<tspan x="1155.11px 1177.67px 1194.8px 1211.55px 1232.05px 1247.49px " y="1219.04px 1219.04px 1219.04px 1219.04px 1219.04px 1219.04px ">NOTHER</tspan></text>
            <text x="1112.27px" y="1277.37px" style="font-family:'SooperSerifThinCondensed', 'Sooper Serif';font-weight:250;font-stretch:condensed;font-size:62.5px;fill:#006fb1;">C<tspan x="1129.08px 1146.71px 1176.71px 1193.14px 1211.14px 1232.64px 1250.33px 1272.83px " y="1277.37px 1277.37px 1277.37px 1277.37px 1277.37px 1277.37px 1277.37px 1277.37px ">OMPONENT</tspan></text>
        </g>
        <g transform="matrix(1,0,0,1,-1078.85,-984.693)">
            <text x="1150.47px" y="1204.45px" style="font-family:'SooperSerifThinCondensed', 'Sooper Serif';font-weight:250;font-stretch:condensed;font-size:41.667px;fill:#006fb1;">(<tspan x="1156.3px 1169.68px 1180.68px 1196.89px " y="1204.45px 1204.45px 1204.45px 1204.45px ">ham-</tspan></text>
            <text x="1141.47px" y="1237.79px" style="font-family:'SooperSerifThinCondensed', 'Sooper Serif';font-weight:250;font-stretch:condensed;font-size:41.667px;fill:#006fb1;">b<tspan x="1154.14px " y="1237.79px ">u</tspan>rg<tspan x="1191.55px 1201.76px 1209.22px " y="1237.79px 1237.79px 1237.79px ">er)</tspan></text>
        </g>
        <path d="M603.481,191.745c-0.185,-4.001 -0.376,-8.002 -0.555,-12.003c-0.035,-0.774 0.293,-3.811 -0.357,-4.12c-0.01,-0.005 -6.373,5.406 -6.736,5.664c-1.043,0.741 -3.586,3.641 -2.773,2.654c1.343,-1.631 8.13,-8.303 10.222,-7.606c2.184,0.728 10.994,7.94 9.03,8.674" style="fill:none;stroke:#f2d865;stroke-width:2.29px;"/>
        <path d="M600.509,359.935c-1.648,18.255 -1.35,36.54 -2.573,54.822c-0.422,6.301 -0.927,12.655 -0.717,18.976c0.103,3.079 0.517,9.229 0.517,9.229c0,0 -1.553,-0.937 -2.217,-1.547c-2.891,-2.658 -7.211,-7.124 -7.211,-11.408c0,-2.092 1.989,3.732 3.408,5.269c2.63,2.849 6.253,8.529 10.853,7.805c0.391,-0.061 0.962,-0.199 1.306,-0.356c0.466,-0.212 0.748,-0.831 0.992,-1.229c2.735,-4.46 4.507,-9.37 7.763,-13.546c2.054,-2.635 10.075,-8.109 2.573,-4.358" style="fill:none;stroke:#f2d865;stroke-width:2.29px;"/>
        <path d="M294.56,393.25c-1.477,0.072 -40.274,2.685 -40.916,1.979c-0.117,-0.129 1.704,-1.306 1.861,-1.428c1.027,-0.799 9.046,-8.379 10.455,-6.97c0.668,0.667 -1.393,1.274 -2.06,1.942c-1.728,1.728 -6.853,7.258 -5.702,10.458c0.87,2.42 10.816,10.481 13.786,6.097" style="fill:none;stroke:#f2d865;stroke-width:2.29px;"/>
        <path d="M546.333,399.151c6.466,-0.374 11.294,-0.356 17.153,-0.356c0.959,0 -9.586,-10.093 -7.487,-8.835c1.093,0.654 10.068,8.46 9.548,9.271c-1.7,2.65 -5.732,4.993 -8.043,7.17c-0.967,0.91 -3.364,4.567 -3.209,3.603" style="fill:none;stroke:#f2d865;stroke-width:2.29px;"/>
        <path d="M419.974,371.658c-0.173,-3.208 -0.332,-6.417 -0.517,-9.624c-0.129,-2.226 -5.74,6.3 -5.27,4.121c1.257,-5.827 16.123,-7.133 16.123,0.674" style="fill:none;stroke:#f2d865;stroke-width:2.29px;"/>
        <path d="M409.913,424.86c0.11,-0.679 3.049,2.066 3.485,2.374c1.215,0.857 10.733,7.883 11.922,6.694c1.048,-1.048 9.111,-9.972 9.111,-10.141c0,-1.307 -1.849,1.849 -2.773,2.773c-1.289,1.289 -6.296,7.646 -8.674,6.457c-2.971,-1.486 3.313,-13.768 -0.632,-9.823" style="fill:none;stroke:#f2d865;stroke-width:2.29px;"/>
        <path d="M409.219,518.204c-0.512,-5.246 -1.162,-10.015 -1.162,-15.21c0,-2.106 -0.401,-4.909 -0.715,-6.679c-0.118,-0.667 0.819,-1.717 0.214,-2.02c-0.929,-0.464 -8.555,3.782 -8.555,4.871c0,1.143 1.868,-1.315 2.803,-1.971c1.953,-1.372 4.166,-2.257 6.156,-3.541c0.455,-0.293 7.337,5.021 8.677,7.7" style="fill:none;stroke:#f2d865;stroke-width:2.29px;"/>
        <path d="M408.792,587.533c0.037,5.633 0.071,11.264 0.071,16.898c0,0.4 0.258,7.791 0.214,7.773c-2.947,-1.213 -4.006,-4.435 -6.131,-6.56c-0.04,-0.041 0.011,0.12 0.046,0.165c0.823,1.063 1.949,2.08 2.925,2.997c1.719,1.615 4.766,1.078 6.179,2.424c0.724,0.69 1,-1.738 1.592,-2.544c0.688,-0.935 4.059,-5.651 3.78,-5.372" style="fill:none;stroke:#f2d865;stroke-width:2.29px;"/>
        <path d="M317.409,554.925c-2.393,0.317 -4.786,0.636 -7.179,0.951c-7.994,1.051 -0.356,-3.935 -0.356,-6.751c0,-0.583 -0.82,0.832 -1.188,1.284c-0.87,1.07 -1.71,2.204 -2.401,3.399c-2.191,3.787 -1.366,6.674 2.994,7.939c0.824,0.239 3.326,0.99 4.042,0.188" style="fill:none;stroke:#f2d865;stroke-width:2.29px;"/>
        <path d="M499.608,555.756c3.469,0.094 7.301,0.351 10.884,0.285c1.398,-0.025 2.681,-0.206 3.994,-0.641c0.58,-0.192 2.311,-0.39 1.735,-0.595c-2.252,-0.799 -5.557,-2.489 -7.25,-4.182c-0.734,-0.734 1.573,1.367 2.447,1.926c1.473,0.941 4.052,1.938 4.612,3.777c0.633,2.08 -1.711,2.701 -3.185,3.684c-0.288,0.192 -1.957,1.712 -1.569,1.022" style="fill:none;stroke:#f2d865;stroke-width:2.29px;"/>
        <path d="M577.967,554.83c-4.331,0.493 -8.933,1.259 -13.357,1.379c-0.08,0.002 -5.922,0.4 -6.227,0.094c-0.963,-0.963 4.054,-3.69 4.563,-3.874c0.793,-0.285 3.088,-0.513 2.353,-0.926c-0.93,-0.522 -3.014,0.924 -3.731,1.377c-1.006,0.633 -4.33,2.65 -3.946,4.207c0.453,1.832 6.841,6.189 8.295,5.204" style="fill:none;stroke:#f2d865;stroke-width:2.29px;"/>
        <path d="M761.044,554.603c0.436,-0.048 6.779,-0.902 9.531,-0.974c1.776,-0.047 3.549,-0.113 5.324,-0.237c1.268,-0.089 2.536,-0.119 3.803,-0.191c1.109,-0.062 1.113,0.355 2.043,0.428c8.202,0.64 -6.487,-2.596 -6.487,-4.04c0,-1.146 2.094,0.933 3.159,1.354c1.778,0.701 6.092,1.417 6.703,3.614c0.583,2.098 -4.935,7.408 -6.962,8.412" style="fill:none;stroke:#f2d865;stroke-width:2.29px;"/>
        <path d="M667.949,527.296c-0.076,-8.568 -0.016,-18.219 -1.379,-26.762c-0.111,-0.696 -1.062,-6.942 -1.425,-6.894c-1.973,0.262 -3.467,5.586 -5.135,5.586c-1.166,0 1.537,-1.761 2.401,-2.544c1.264,-1.145 2.647,-2.153 3.968,-3.23c0.735,-0.6 1.707,-2.722 2.139,-1.878c2.337,4.563 9.952,9.522 6.894,11.694" style="fill:none;stroke:#f2d865;stroke-width:2.29px;"/>
        <path d="M669.518,586.88c0.086,9.476 -0.404,18.985 -0.404,28.424c0,1.019 -1.503,-1.386 -2.163,-2.162c-1.182,-1.392 -2.373,-2.745 -3.375,-4.279c-0.45,-0.688 -1.094,-3.033 -1.094,-2.21c0,1.755 1.57,3.447 2.757,4.588c1.646,1.581 5.282,4.442 7.749,2.971c1.304,-0.777 1.718,-4.601 2.258,-5.848c0.616,-1.422 5.294,-6.371 2.59,-4.942" style="fill:none;stroke:#f2d865;stroke-width:2.29px;"/>
    </g>
</svg>
